<svg width="15" height="16" viewBox="0 0 15 16" fill="none" xmlns="http://www.w3.org/2000/svg">
<g clip-path="url(#clip0_677_5065)">
<path d="M4.61971 7.03872L1.57459 10.0838C1.06537 10.5931 0.779297 11.2837 0.779297 12.0038C0.779297 12.3604 0.84953 12.7135 0.985986 13.0429C1.12244 13.3724 1.32245 13.6717 1.57459 13.9238C1.82672 14.176 2.12606 14.376 2.45549 14.5124C2.78492 14.6489 3.13801 14.7191 3.49459 14.7191C4.21473 14.7191 4.90537 14.4331 5.41459 13.9238L8.45971 10.8787M10.3797 8.95872L13.4248 5.9136C13.9172 5.40096 14.189 4.7157 14.1819 4.00492C14.1747 3.29413 13.8892 2.61448 13.3866 2.11186C12.8839 1.60923 12.2043 1.3237 11.4935 1.31654C10.7827 1.30939 10.0975 1.58119 9.58483 2.0736L6.53971 5.11872M4.61971 10.8787L10.3797 5.11872" stroke="#4CDBC7" stroke-width="1.152"/>
</g>
<defs>
<clipPath id="clip0_677_5065">
<rect width="14.4" height="14.4" fill="white" transform="translate(0.299805 0.800781)"/>
</clipPath>
</defs>
</svg>
