<svg width="45" height="31" viewBox="0 0 45 31" fill="none" xmlns="http://www.w3.org/2000/svg">
<path d="M18.564 1.59275C19.656 3.46475 18.642 5.49275 16.692 6.81875C14.586 8.22275 12.714 9.78275 11.622 11.8107C15.6 11.7327 19.968 15.0087 19.968 21.0147C19.968 26.3187 15.678 30.6868 10.374 30.6868C4.056 30.6868 0 26.3187 0 19.2207C0 9.78275 5.226 4.01075 12.636 0.734748C15.054 -0.357252 17.394 -0.357252 18.564 1.59275ZM42.624 1.59275C43.716 3.46475 42.702 5.49275 40.752 6.81875C38.646 8.22275 36.774 9.78275 35.682 11.8107C39.66 11.7327 44.028 15.0087 44.028 21.0147C44.028 26.3187 39.738 30.6868 34.434 30.6868C28.116 30.6868 24.06 26.3187 24.06 19.2207C24.06 9.78275 29.286 4.01075 36.696 0.734748C39.114 -0.357252 41.454 -0.357252 42.624 1.59275Z" fill="#2B2B2B"/>
</svg>
