<svg width="371" height="371" viewBox="0 0 371 371" fill="none" xmlns="http://www.w3.org/2000/svg">
<g filter="url(#filter0_d_972_3367)">
<rect x="8" y="9" width="354" height="354" rx="177" fill="white"/>
</g>
<g filter="url(#filter1_d_972_3367)">
<rect x="8" y="8" width="355" height="355" rx="177.5" fill="#F4F4F4"/>
</g>
<path d="M131.516 319.421L151.096 315.176L173.783 310.254C173.783 310.254 175.012 314.012 176.735 319.421H131.516Z" fill="#2B2B2B"/>
<path d="M181.076 316.984C181.076 316.984 180.893 317.965 180.517 319.422H89.1063C88.098 316.352 87.6488 313.189 88.8496 310.577C89.0516 310.12 89.307 309.689 89.6104 309.293C89.8353 308.982 90.0868 308.69 90.3621 308.422C92.1588 306.644 93.2588 302.812 93.9188 298.449C94.7112 292.482 95.0391 286.463 94.8996 280.445C94.9088 280.436 94.9088 280.436 94.8996 280.436C94.8813 279.016 94.8446 278.163 94.8446 278.163C94.8446 278.163 94.4963 272.911 94.1021 264.972C94.1113 264.972 94.1021 264.963 94.1021 264.963C93.0205 243.54 91.5538 202.528 95.358 191.657C95.6006 190.74 96.0924 189.909 96.7788 189.255C101.9 185.559 107.35 182.34 113.059 179.639C113.389 179.492 113.563 179.41 113.563 179.41L126.112 179.171L141.696 176.421L152.522 174.441C152.522 174.441 153.319 174.496 154.566 174.671C158.709 175.239 167.821 177.1 169.104 182.49C169.104 182.499 169.113 182.508 169.113 182.517C169.276 183.224 169.304 183.955 169.196 184.672C167.968 193.655 176.639 248.829 179.279 251.589C181.919 254.348 181.223 264.431 174.696 270.839C173.546 272.024 172.708 273.476 172.258 275.065C169.792 282.994 173.66 295.946 177.446 302.006C180.197 306.494 181.467 311.734 181.076 316.984Z" fill="#2B2B2B"/>
<path d="M230.998 140.594L230.735 131.001L230.384 118.138L220.129 117.664L218.693 130.445L217.355 142.321L230.998 140.594Z" fill="#FFB6B6"/>
<path d="M125.965 181.209L140.351 196.649C140.351 196.649 201.308 206.494 201.716 201.325C202.124 196.155 198.109 194.658 204.691 195.117C211.273 195.577 212.854 200.253 213.857 195.781C214.86 191.308 209.342 191.199 215.731 190.565C222.121 189.931 236.078 134.141 236.078 134.141L213.815 137.731C213.815 137.731 209.488 164.706 206.775 168.153C204.062 171.601 201.339 174.074 199.665 174.223C197.991 174.373 125.965 181.209 125.965 181.209Z" fill="#2B2B2B"/>
<path d="M134.209 161.246C145.881 161.246 155.343 151.783 155.343 140.111C155.343 128.439 145.881 118.977 134.209 118.977C122.536 118.977 113.074 128.439 113.074 140.111C113.074 151.783 122.536 161.246 134.209 161.246Z" fill="#FFB6B6"/>
<path d="M117.743 158.317L126.122 159.921C126.122 159.921 118.33 147.344 118.788 141.587C119.247 135.831 125.517 133.768 125.517 133.768C125.517 133.768 128.991 134.52 132.648 134.942C133.086 133.708 133.655 132.525 134.344 131.412C134.48 132.849 135.116 134.192 136.141 135.207C137.481 135.323 138.831 135.167 140.11 134.749C141.558 134.089 141.531 132.943 141.054 131.871C148.03 132.21 154.639 135.602 154.639 135.602C154.85 132.787 154.742 129.958 154.318 127.168C154.117 127.113 153.915 127.049 153.713 126.985C152.464 126.59 151.26 126.064 150.12 125.417C151.388 125.249 152.573 124.692 153.512 123.822C152.742 121.567 151.513 119.615 149.579 118.661C147.713 117.749 145.673 117.248 143.596 117.193C141.52 117.137 139.455 117.529 137.543 118.341C137.543 118.341 142.026 115.068 140.376 113.73C140.266 113.84 140.156 113.941 140.037 114.041C139.881 114.17 139.707 114.307 139.542 114.436C138.524 115.261 137.002 114.096 136.801 112.85C136.779 112.692 136.748 112.536 136.709 112.382C136.682 112.254 136.645 112.126 136.608 112.006C136.577 111.901 136.54 111.797 136.498 111.695C133.446 110.961 124.215 113.941 120.667 120.504C120.667 120.504 95.8713 132.421 117.743 158.317Z" fill="#2B2B2B"/>
<path d="M107.608 319.418H95.7643L95.3607 318.749L89.6134 309.289L86.4414 304.063L93.9216 298.445L97.4419 295.805L105.206 313.835L107.608 319.418Z" fill="#FFB6B6"/>
<path d="M113.062 179.634L142.616 247.917L154.569 174.666C153.323 174.491 152.525 174.436 152.525 174.436L147.438 164.555L118.297 166.067L113.567 179.405C113.567 179.405 113.392 179.487 113.062 179.634Z" fill="#4CDBC7"/>
<path d="M151.946 319.417H128.672L143.532 277.25L151.094 315.173L151.946 319.417Z" fill="#4CDBC7"/>
<path opacity="0.5" d="M293.451 190.023H226.55C215.943 190.023 207.344 198.622 207.344 209.229V233.416C207.344 244.024 215.943 252.623 226.55 252.623H293.451C304.059 252.623 312.658 244.024 312.658 233.416V209.229C312.658 198.622 304.059 190.023 293.451 190.023Z" fill="white"/>
<path d="M293.455 253.34H226.553C221.271 253.334 216.206 251.233 212.471 247.498C208.736 243.762 206.635 238.698 206.629 233.416V209.229C206.635 203.947 208.736 198.882 212.471 195.147C216.206 191.412 221.271 189.311 226.553 189.305H293.455C298.737 189.311 303.801 191.412 307.537 195.147C311.272 198.882 313.373 203.947 313.379 209.229V233.416C313.373 238.698 311.272 243.762 307.537 247.498C303.801 251.233 298.737 253.334 293.455 253.34ZM226.553 190.741C221.652 190.747 216.952 192.696 213.486 196.162C210.02 199.628 208.071 204.327 208.065 209.229V233.416C208.071 238.317 210.02 243.017 213.486 246.483C216.952 249.949 221.652 251.898 226.553 251.904H293.455C298.356 251.898 303.056 249.949 306.521 246.483C309.987 243.017 311.937 238.317 311.943 233.416V209.229C311.937 204.327 309.987 199.628 306.521 196.162C303.056 192.696 298.356 190.747 293.455 190.741L226.553 190.741Z" fill="white"/>
<path d="M259.917 239.054C268.389 239.054 275.257 232.186 275.257 223.714C275.257 215.243 268.389 208.375 259.917 208.375C251.446 208.375 244.578 215.243 244.578 223.714C244.578 232.186 251.446 239.054 259.917 239.054Z" fill="#FFB6B6"/>
<path d="M263.285 238.969C261.402 234.77 271.606 226.058 265.068 225.616C265.068 225.616 260.77 218.081 258.041 220.101C254.881 222.44 250.277 218.192 247.572 215.349C248.147 214.885 248.664 214.352 249.11 213.761C248.25 213.919 247.379 214.01 246.505 214.034C246.181 213.554 245.954 213.015 245.838 212.448C245.711 211.911 245.752 211.348 245.954 210.835C246.156 210.322 246.511 209.883 246.97 209.577C247.961 209.025 249.227 209.362 250.287 208.966C250.419 208.901 250.534 208.806 250.621 208.687C250.708 208.569 250.765 208.431 250.787 208.285C250.867 207.943 251.021 207.622 251.238 207.346C251.456 207.07 251.732 206.845 252.046 206.687C252.361 206.53 252.706 206.444 253.057 206.435C253.409 206.427 253.758 206.496 254.08 206.637C254.202 206.707 254.34 206.745 254.481 206.749C255.22 206.702 255.95 206.567 256.657 206.348C255.864 205.977 255.1 205.546 254.373 205.059C254.223 204.958 254.074 204.856 253.927 204.749C254.586 204.214 255.352 203.827 256.174 203.616C256.996 203.404 257.854 203.373 258.689 203.523C260.441 203.864 262.129 204.474 263.694 205.33C264.621 205.782 265.547 206.233 266.471 206.683C268.464 207.561 270.36 208.647 272.125 209.924C273.967 211.371 275.466 213.207 276.515 215.301C277.565 217.395 278.139 219.695 278.197 222.036C278.282 226.708 274.285 239.509 263.285 238.969Z" fill="#2B2B2B"/>
<path opacity="0.5" d="M168.752 251.074H101.851C91.2434 251.074 82.6445 259.673 82.6445 270.28V294.467C82.6445 305.075 91.2434 313.673 101.851 313.673H168.752C179.359 313.673 187.958 305.075 187.958 294.467V270.28C187.958 259.673 179.359 251.074 168.752 251.074Z" fill="white"/>
<path d="M168.752 314.395H101.85C96.5676 314.389 91.5033 312.288 87.7681 308.552C84.0329 304.817 81.9318 299.753 81.9258 294.47V270.284C81.9318 265.001 84.0329 259.937 87.7681 256.202C91.5033 252.466 96.5676 250.365 101.85 250.359H168.752C174.034 250.365 179.098 252.466 182.834 256.202C186.569 259.937 188.67 265.001 188.676 270.284V294.47C188.67 299.753 186.569 304.817 182.833 308.552C179.098 312.288 174.034 314.389 168.752 314.395ZM101.85 251.796C96.9484 251.801 92.2492 253.751 88.7832 257.217C85.3172 260.683 83.3676 265.382 83.3621 270.284V294.47C83.3676 299.372 85.3172 304.071 88.7832 307.537C92.2492 311.003 96.9484 312.953 101.85 312.958H168.752C173.653 312.953 178.352 311.003 181.818 307.537C185.284 304.071 187.234 299.372 187.24 294.47V270.284C187.234 265.382 185.284 260.683 181.818 257.217C178.352 253.751 173.653 251.801 168.752 251.796H101.85Z" fill="white"/>
<path d="M136.328 302.339C144.935 302.339 151.913 295.361 151.913 286.753C151.913 278.146 144.935 271.168 136.328 271.168C127.72 271.168 120.742 278.146 120.742 286.753C120.742 295.361 127.72 302.339 136.328 302.339Z" fill="#FFB6B6"/>
<path d="M126.177 290.758C125.983 290.693 125.778 290.67 125.574 290.691C125.371 290.713 125.174 290.777 124.998 290.881C124.822 290.984 124.67 291.124 124.552 291.292C124.435 291.459 124.354 291.65 124.317 291.851C124.265 292.264 124.299 292.682 124.415 293.082C124.531 293.481 124.728 293.853 124.992 294.173C125.525 294.811 126.002 295.492 126.418 296.21C126.621 296.574 126.717 296.987 126.693 297.403C126.669 297.819 126.526 298.219 126.283 298.556C126.017 298.815 125.684 298.993 125.321 299.069C124.959 299.146 124.582 299.118 124.234 298.989C123.543 298.718 122.932 298.277 122.458 297.705C119.478 294.472 116.37 289.105 117.893 284.981C118.02 284.541 118.07 284.081 118.042 283.624C118.071 283.099 118.168 282.309 117.674 282.13C116.295 281.632 120.165 273.57 126.138 271.816C125.847 269.063 140.218 265.103 139.433 268.559C139.293 269.18 140.68 268.842 141.316 268.877C146.191 269.141 151.698 270.366 151.254 276.017C151.082 278.205 151.987 277.701 152.714 279.772C151.582 280.447 151.21 281.927 150.337 280.939C149.465 279.952 148.719 278.714 147.468 278.3C146.136 277.858 144.69 278.519 143.554 279.343C142.418 280.167 141.375 281.19 140.04 281.622C138.542 282.106 136.908 281.769 135.347 281.965C133.118 282.347 131.106 283.53 129.687 285.29C128.288 287.04 127.108 288.953 126.172 290.989" fill="#2B2B2B"/>
<path d="M117.408 189.082L96.3249 189.999C96.3249 189.999 65.158 243.166 68.8247 246.832C72.4914 250.499 76.2372 248.418 71.6143 253.125C66.9913 257.833 62.408 255.999 65.158 259.666C67.908 263.333 71.5747 259.207 67.908 264.478C64.2413 269.749 94.0332 319.419 94.0332 319.419L106.867 313.002C106.867 313.002 94.3781 280.186 93.5182 275.884C92.6582 271.583 92.5448 267.906 93.5182 266.536C94.4915 265.166 117.408 189.082 117.408 189.082Z" fill="#2B2B2B"/>
<path d="M225.381 205.792C228.11 205.792 230.324 203.579 230.324 200.849C230.324 198.119 228.11 195.906 225.381 195.906C222.651 195.906 220.438 198.119 220.438 200.849C220.438 203.579 222.651 205.792 225.381 205.792Z" fill="#4CDBC7"/>
<path d="M224.713 203.423C224.628 203.423 224.544 203.403 224.467 203.365C224.391 203.326 224.324 203.271 224.273 203.203L222.925 201.405C222.881 201.347 222.849 201.281 222.83 201.211C222.812 201.141 222.808 201.068 222.818 200.996C222.828 200.924 222.852 200.855 222.889 200.792C222.926 200.73 222.974 200.675 223.032 200.632C223.09 200.588 223.156 200.557 223.227 200.539C223.297 200.521 223.37 200.517 223.442 200.528C223.514 200.538 223.583 200.563 223.645 200.6C223.707 200.637 223.761 200.687 223.804 200.745L224.687 201.921L226.953 198.522C227.034 198.401 227.159 198.317 227.302 198.288C227.445 198.259 227.594 198.289 227.715 198.37C227.836 198.451 227.921 198.576 227.949 198.719C227.978 198.862 227.948 199.011 227.868 199.132L225.171 203.178C225.122 203.251 225.056 203.311 224.979 203.354C224.902 203.396 224.816 203.42 224.728 203.422L224.713 203.423Z" fill="white"/>
<path d="M104.74 267.554C107.47 267.554 109.683 265.341 109.683 262.611C109.683 259.881 107.47 257.668 104.74 257.668C102.01 257.668 99.7969 259.881 99.7969 262.611C99.7969 265.341 102.01 267.554 104.74 267.554Z" fill="#4CDBC7"/>
<path d="M104.065 265.184C103.979 265.184 103.895 265.164 103.819 265.126C103.742 265.088 103.676 265.033 103.625 264.964L102.276 263.166C102.232 263.109 102.2 263.043 102.182 262.973C102.164 262.902 102.159 262.829 102.169 262.758C102.179 262.686 102.203 262.617 102.24 262.554C102.277 262.492 102.326 262.437 102.384 262.394C102.442 262.35 102.508 262.319 102.578 262.301C102.649 262.283 102.722 262.279 102.793 262.289C102.865 262.3 102.934 262.325 102.996 262.362C103.059 262.399 103.113 262.448 103.156 262.507L104.038 263.683L106.304 260.284C106.344 260.224 106.396 260.172 106.456 260.132C106.516 260.092 106.583 260.064 106.654 260.05C106.725 260.036 106.798 260.036 106.868 260.05C106.939 260.064 107.007 260.091 107.067 260.131C107.127 260.171 107.178 260.223 107.219 260.283C107.259 260.343 107.287 260.41 107.301 260.481C107.315 260.552 107.315 260.625 107.301 260.696C107.287 260.766 107.259 260.834 107.219 260.894L104.522 264.939C104.473 265.013 104.408 265.073 104.331 265.116C104.254 265.158 104.168 265.182 104.08 265.184L104.065 265.184Z" fill="white"/>
<path d="M296.478 208.428C295.513 208.428 294.569 208.142 293.767 207.606C292.964 207.07 292.339 206.308 291.969 205.416C291.6 204.524 291.503 203.543 291.691 202.596C291.88 201.649 292.345 200.78 293.027 200.097C293.71 199.415 294.579 198.95 295.526 198.762C296.472 198.573 297.454 198.67 298.345 199.039C299.237 199.409 299.999 200.034 300.536 200.837C301.072 201.639 301.358 202.583 301.358 203.548C301.358 204.843 300.844 206.084 299.929 206.999C299.014 207.914 297.772 208.428 296.478 208.428Z" fill="#ECECEC"/>
<path d="M298.184 204.569L297.163 203.548L298.184 202.527C298.229 202.482 298.265 202.429 298.289 202.371C298.314 202.312 298.327 202.249 298.327 202.186C298.327 202.123 298.315 202.06 298.291 202.001C298.266 201.942 298.231 201.889 298.186 201.844C298.141 201.799 298.088 201.764 298.029 201.74C297.97 201.715 297.908 201.703 297.844 201.703C297.781 201.703 297.718 201.716 297.659 201.741C297.601 201.765 297.548 201.801 297.503 201.846L296.482 202.867L295.461 201.846C295.37 201.756 295.248 201.706 295.12 201.706C294.993 201.706 294.871 201.757 294.781 201.847C294.691 201.937 294.64 202.059 294.64 202.187C294.64 202.314 294.69 202.437 294.78 202.527L295.801 203.548L294.78 204.569C294.735 204.614 294.699 204.667 294.674 204.726C294.65 204.784 294.637 204.847 294.637 204.91C294.637 204.974 294.649 205.037 294.673 205.095C294.697 205.154 294.733 205.207 294.778 205.252C294.823 205.297 294.876 205.333 294.935 205.357C294.993 205.381 295.056 205.394 295.12 205.393C295.183 205.393 295.246 205.38 295.304 205.356C295.363 205.331 295.416 205.295 295.461 205.25L296.482 204.229L297.503 205.25C297.548 205.295 297.601 205.331 297.659 205.355C297.718 205.38 297.78 205.392 297.844 205.392C297.907 205.392 297.97 205.38 298.028 205.356C298.087 205.332 298.14 205.296 298.185 205.251C298.23 205.206 298.265 205.153 298.289 205.095C298.313 205.036 298.326 204.973 298.326 204.91C298.326 204.847 298.313 204.784 298.289 204.726C298.264 204.667 298.229 204.614 298.184 204.569Z" fill="white"/>
<path d="M170.087 267.319C169.122 267.319 168.178 267.033 167.376 266.497C166.573 265.96 165.948 265.198 165.579 264.306C165.209 263.415 165.112 262.433 165.301 261.487C165.489 260.54 165.954 259.67 166.636 258.988C167.319 258.305 168.189 257.841 169.135 257.652C170.082 257.464 171.063 257.561 171.955 257.93C172.847 258.299 173.609 258.925 174.145 259.728C174.681 260.53 174.967 261.474 174.967 262.439C174.967 263.733 174.453 264.974 173.538 265.89C172.623 266.805 171.382 267.319 170.087 267.319Z" fill="#ECECEC"/>
<path d="M171.785 263.461L170.764 262.44L171.785 261.418C171.875 261.328 171.925 261.206 171.924 261.079C171.924 260.952 171.873 260.83 171.783 260.74C171.693 260.65 171.572 260.599 171.444 260.599C171.317 260.598 171.195 260.648 171.105 260.738L170.083 261.759L169.062 260.738C168.972 260.648 168.849 260.597 168.722 260.598C168.595 260.598 168.472 260.649 168.382 260.739C168.292 260.829 168.242 260.951 168.241 261.078C168.241 261.206 168.292 261.328 168.381 261.418L169.403 262.44L168.381 263.461C168.336 263.505 168.3 263.559 168.276 263.617C168.251 263.676 168.238 263.738 168.238 263.802C168.238 263.865 168.25 263.928 168.275 263.987C168.299 264.046 168.334 264.099 168.379 264.144C168.424 264.189 168.477 264.224 168.536 264.248C168.595 264.273 168.658 264.285 168.721 264.285C168.785 264.285 168.847 264.272 168.906 264.247C168.965 264.223 169.018 264.187 169.062 264.142L170.083 263.12L171.105 264.142C171.195 264.231 171.317 264.282 171.445 264.282C171.572 264.282 171.694 264.231 171.784 264.141C171.875 264.051 171.925 263.928 171.925 263.801C171.926 263.674 171.875 263.551 171.785 263.461Z" fill="white"/>
<path d="M225.297 121.931C230.057 121.931 233.915 118.072 233.915 113.313C233.915 108.554 230.057 104.695 225.297 104.695C220.538 104.695 216.68 108.554 216.68 113.313C216.68 118.072 220.538 121.931 225.297 121.931Z" fill="#FFB6B6"/>
<path opacity="0.5" d="M293.221 111.012H226.319C215.712 111.012 207.113 119.611 207.113 130.218V154.405C207.113 165.012 215.712 173.611 226.319 173.611H293.221C303.828 173.611 312.427 165.012 312.427 154.405V130.218C312.427 119.611 303.828 111.012 293.221 111.012Z" fill="white"/>
<path d="M293.221 174.333H226.319C221.036 174.327 215.972 172.225 212.237 168.49C208.502 164.755 206.401 159.691 206.395 154.408V130.221C206.401 124.939 208.502 119.874 212.237 116.139C215.972 112.404 221.036 110.303 226.319 110.297H293.221C298.503 110.303 303.568 112.404 307.303 116.139C311.038 119.874 313.139 124.939 313.145 130.221V154.408C313.139 159.691 311.038 164.755 307.303 168.49C303.568 172.225 298.503 174.327 293.221 174.333ZM226.319 111.733C221.417 111.739 216.718 113.688 213.252 117.154C209.786 120.62 207.836 125.32 207.831 130.221V154.408C207.836 159.31 209.786 164.009 213.252 167.475C216.718 170.941 221.417 172.891 226.319 172.896H293.221C298.123 172.891 302.822 170.941 306.288 167.475C309.754 164.009 311.703 159.31 311.709 154.408V130.221C311.703 125.32 309.754 120.62 306.288 117.154C302.822 113.688 298.123 111.739 293.221 111.733H226.319Z" fill="white"/>
<path d="M279.763 144.11C279.807 148.129 281.086 156.498 280.169 160.435L280.021 160.106C279.259 160.71 278.449 161.252 277.599 161.726C276.987 160.235 276.07 158.889 274.909 157.772C275.062 159.62 274.843 161.479 274.266 163.241C270.834 164.477 264.811 160.583 261.077 160.501C255.069 160.364 249.216 158.87 243.477 157.289C241.44 156.729 239.2 155.998 238.277 154.307C237.355 152.616 239.006 150.79 238.898 148.882C238.128 135.288 244.603 133.009 250.764 129.377C252.12 128.578 252.785 126.857 254.317 126.187C256.442 125.259 258.973 125.704 261.285 126.17C260.711 125.981 260.195 125.647 259.788 125.201C259.38 124.755 259.094 124.211 258.957 123.622C258.861 123.045 258.925 122.453 259.144 121.91C259.363 121.368 259.728 120.896 260.198 120.547C260.899 120.089 261.692 119.79 262.521 119.671C263.351 119.552 264.196 119.617 264.997 119.861C266.568 120.352 268.053 121.082 269.401 122.025C270.317 122.527 271.135 123.189 271.817 123.979C272.139 124.354 272.338 124.817 272.389 125.308C272.44 125.798 272.34 126.293 272.103 126.725C271.81 127.096 271.437 127.395 271.012 127.601C270.587 127.808 270.121 127.916 269.648 127.917C268.92 127.938 268.193 127.862 267.485 127.691C270.73 128.492 273.655 130.262 275.87 132.765C278.621 135.967 279.714 140.09 279.763 144.11Z" fill="#2B2B2B"/>
<path d="M258.211 157.2C265.564 157.2 271.524 151.239 271.524 143.887C271.524 136.535 265.564 130.574 258.211 130.574C250.859 130.574 244.898 136.535 244.898 143.887C244.898 151.239 250.859 157.2 258.211 157.2Z" fill="#FFB6B6"/>
<path d="M272.737 141.876C271.172 143.77 268.843 143.672 266.773 143.37C266.12 143.276 265.466 143.172 264.813 143.051C264.698 142.683 264.566 142.315 264.418 141.958C263.805 140.468 262.889 139.121 261.727 138.005C261.849 139.465 261.736 140.935 261.392 142.359C260.178 142.079 258.97 141.766 257.768 141.42C256.704 141.247 255.747 140.672 255.095 139.814C254.443 138.955 254.146 137.879 254.264 136.808C252.535 138.126 250.651 139.268 248.674 139.29C247.56 139.261 246.484 138.876 245.605 138.191C244.725 137.506 244.088 136.557 243.787 135.484C243.328 133.746 243.248 131.93 243.551 130.158C243.815 128.044 244.408 125.721 245.836 124.87C246.983 124.178 248.307 124.672 249.487 125.232C252.088 126.481 254.554 127.993 256.845 129.746L256.873 130.323C257.466 127.484 259.426 125.293 261.562 125.073C263.001 124.93 264.407 125.595 265.763 126.265C267.536 127.047 269.184 128.085 270.656 129.345C272.318 130.857 273.472 132.846 273.961 135.039C274.472 137.417 274.088 140.24 272.737 141.876Z" fill="#2B2B2B"/>
<path d="M259.56 123.401C259.697 123.412 259.361 123.335 259.47 123.381C259.417 123.357 259.365 123.328 259.317 123.295C259.308 123.29 259.2 123.202 259.271 123.263C259.108 123.136 258.985 122.965 258.918 122.77C258.766 122.297 258.696 121.801 258.709 121.304C258.737 120.65 258.625 119.998 258.383 119.391C258.311 119.227 258.201 119.082 258.062 118.967C257.924 118.853 257.76 118.773 257.585 118.734C257.41 118.695 257.228 118.698 257.054 118.743C256.88 118.787 256.719 118.872 256.584 118.99C256.205 119.501 256.021 120.132 256.067 120.767C256.033 121.382 256.098 121.998 256.26 122.592C256.539 123.568 257.096 124.443 257.863 125.108C258.748 125.884 259.86 126.354 261.034 126.447C261.195 126.444 261.352 126.393 261.485 126.302C261.618 126.211 261.722 126.083 261.784 125.934C261.845 125.785 261.862 125.621 261.833 125.463C261.803 125.304 261.728 125.158 261.616 125.041L260.142 123.642C259.988 123.489 259.779 123.404 259.561 123.404C259.344 123.405 259.135 123.492 258.981 123.646C258.827 123.799 258.741 124.008 258.74 124.225C258.739 124.443 258.825 124.652 258.978 124.807L260.452 126.206L261.034 124.8C260.791 124.778 260.551 124.729 260.318 124.654C260.066 124.584 259.826 124.478 259.603 124.34C259.386 124.221 259.182 124.078 258.995 123.915C258.875 123.81 258.761 123.699 258.653 123.582C258.613 123.54 258.575 123.497 258.537 123.453C258.54 123.456 258.382 123.258 258.45 123.348C258.28 123.115 258.131 122.867 258.007 122.606C257.963 122.514 257.927 122.418 257.899 122.32C257.847 122.159 257.804 121.994 257.771 121.828C257.708 121.478 257.689 121.122 257.715 120.767C257.722 120.617 257.737 120.467 257.76 120.318C257.78 120.24 257.796 120.16 257.806 120.079C257.809 119.879 257.778 120.186 257.674 120.233L257.258 120.345C257.191 120.34 257.125 120.319 257.066 120.285C257.008 120.25 256.958 120.203 256.92 120.147C256.902 120.078 256.907 120.09 256.934 120.183C256.966 120.293 256.99 120.404 257.007 120.516C257.039 120.778 257.057 121.04 257.062 121.303C257.067 121.861 257.132 122.416 257.255 122.96C257.371 123.506 257.656 124.002 258.069 124.377C258.483 124.752 259.005 124.987 259.56 125.048C259.778 125.046 259.987 124.959 260.141 124.805C260.295 124.651 260.382 124.442 260.384 124.224C260.379 124.007 260.291 123.8 260.138 123.647C259.984 123.493 259.777 123.405 259.56 123.401Z" fill="#2B2B2B"/>
<path d="M226.822 126.796C229.552 126.796 231.765 124.583 231.765 121.853C231.765 119.123 229.552 116.91 226.822 116.91C224.092 116.91 221.879 119.123 221.879 121.853C221.879 124.583 224.092 126.796 226.822 126.796Z" fill="#4CDBC7"/>
<path d="M226.151 124.427C226.065 124.427 225.981 124.407 225.905 124.368C225.828 124.33 225.762 124.275 225.711 124.207L224.362 122.408C224.318 122.351 224.286 122.285 224.268 122.215C224.25 122.145 224.245 122.072 224.255 122C224.265 121.928 224.289 121.859 224.326 121.796C224.363 121.734 224.412 121.679 224.47 121.636C224.528 121.592 224.594 121.561 224.664 121.543C224.735 121.525 224.808 121.521 224.879 121.532C224.951 121.542 225.02 121.567 225.082 121.604C225.145 121.641 225.199 121.69 225.242 121.749L226.124 122.925L228.39 119.526C228.471 119.405 228.597 119.321 228.74 119.292C228.883 119.263 229.031 119.293 229.153 119.374C229.274 119.454 229.358 119.58 229.387 119.723C229.415 119.866 229.386 120.015 229.305 120.136L226.608 124.182C226.559 124.255 226.494 124.315 226.417 124.358C226.34 124.4 226.254 124.424 226.166 124.426L226.151 124.427Z" fill="white"/>
<path d="M294.326 127.28C293.36 127.28 292.417 126.994 291.614 126.457C290.812 125.921 290.186 125.159 289.817 124.267C289.447 123.376 289.351 122.394 289.539 121.448C289.727 120.501 290.192 119.631 290.875 118.949C291.557 118.266 292.427 117.802 293.373 117.613C294.32 117.425 295.301 117.522 296.193 117.891C297.085 118.26 297.847 118.886 298.383 119.688C298.92 120.491 299.206 121.435 299.206 122.4C299.206 123.694 298.692 124.935 297.776 125.851C296.861 126.766 295.62 127.28 294.326 127.28Z" fill="#ECECEC"/>
<path d="M296.028 123.425L295.006 122.404L296.028 121.383C296.073 121.338 296.109 121.285 296.133 121.226C296.158 121.168 296.17 121.105 296.171 121.041C296.171 120.978 296.158 120.915 296.134 120.856C296.11 120.798 296.075 120.744 296.03 120.7C295.985 120.655 295.931 120.619 295.873 120.595C295.814 120.571 295.751 120.558 295.688 120.559C295.624 120.559 295.562 120.572 295.503 120.596C295.444 120.621 295.391 120.657 295.347 120.702L294.326 121.723L293.304 120.702C293.214 120.612 293.092 120.562 292.964 120.562C292.837 120.562 292.715 120.613 292.625 120.703C292.534 120.793 292.484 120.915 292.484 121.042C292.483 121.17 292.534 121.292 292.624 121.383L293.645 122.404L292.624 123.425C292.578 123.47 292.543 123.523 292.518 123.581C292.493 123.64 292.481 123.702 292.48 123.766C292.48 123.829 292.493 123.892 292.517 123.951C292.541 124.01 292.577 124.063 292.621 124.108C292.666 124.153 292.72 124.188 292.778 124.212C292.837 124.237 292.9 124.249 292.963 124.249C293.027 124.249 293.09 124.236 293.148 124.211C293.207 124.187 293.26 124.151 293.304 124.106L294.326 123.084L295.347 124.106C295.391 124.151 295.444 124.186 295.503 124.211C295.561 124.235 295.624 124.248 295.687 124.248C295.751 124.248 295.814 124.235 295.872 124.211C295.931 124.187 295.984 124.151 296.029 124.107C296.073 124.062 296.109 124.009 296.133 123.95C296.157 123.892 296.17 123.829 296.17 123.766C296.169 123.702 296.157 123.64 296.133 123.581C296.108 123.523 296.072 123.47 296.028 123.425Z" fill="white"/>
<path d="M327.294 81H43.7059C43.5187 81 43.3392 80.9473 43.2068 80.8535C43.0744 80.7598 43 80.6326 43 80.5C43 80.3674 43.0744 80.2402 43.2068 80.1465C43.3392 80.0527 43.5187 80 43.7059 80H327.294C327.481 80 327.661 80.0527 327.793 80.1465C327.926 80.2402 328 80.3674 328 80.5C328 80.6326 327.926 80.7598 327.793 80.8535C327.661 80.9473 327.481 81 327.294 81Z" fill="white"/>
<path d="M80.5573 71.9368C83.3158 71.9368 85.5521 69.6507 85.5521 66.8307C85.5521 64.0107 83.3158 61.7246 80.5573 61.7246C77.7987 61.7246 75.5625 64.0107 75.5625 66.8307C75.5625 69.6507 77.7987 71.9368 80.5573 71.9368Z" fill="white"/>
<path d="M97.819 71.9368C100.578 71.9368 102.814 69.6507 102.814 66.8307C102.814 64.0107 100.578 61.7246 97.819 61.7246C95.0605 61.7246 92.8242 64.0107 92.8242 66.8307C92.8242 69.6507 95.0605 71.9368 97.819 71.9368Z" fill="white"/>
<path d="M115.073 71.9368C117.831 71.9368 120.068 69.6507 120.068 66.8307C120.068 64.0107 117.831 61.7246 115.073 61.7246C112.314 61.7246 110.078 64.0107 110.078 66.8307C110.078 69.6507 112.314 71.9368 115.073 71.9368Z" fill="white"/>
<path d="M134.746 70.8682C134.667 70.8683 134.589 70.8527 134.517 70.8222C134.444 70.7917 134.379 70.7469 134.324 70.6906L130.954 67.2454C130.846 67.1351 130.785 66.9868 130.785 66.8324C130.785 66.678 130.846 66.5298 130.954 66.4194L134.324 62.9745C134.378 62.9191 134.443 62.8748 134.514 62.8444C134.585 62.8139 134.662 62.7978 134.74 62.7969C134.817 62.7961 134.894 62.8105 134.966 62.8394C135.038 62.8683 135.104 62.911 135.159 62.9653C135.215 63.0195 135.259 63.0841 135.289 63.1555C135.32 63.2268 135.336 63.3034 135.337 63.381C135.337 63.4585 135.323 63.5355 135.294 63.6075C135.265 63.6794 135.223 63.745 135.168 63.8005L132.202 66.8324L135.168 69.8646C135.25 69.9477 135.305 70.053 135.326 70.1672C135.348 70.2814 135.336 70.3995 135.29 70.5066C135.245 70.6138 135.17 70.7053 135.073 70.7696C134.976 70.8339 134.862 70.8682 134.746 70.8682Z" fill="white"/>
<path d="M140.411 70.8682C140.295 70.8682 140.181 70.8339 140.084 70.7696C139.987 70.7053 139.912 70.6138 139.867 70.5066C139.821 70.3995 139.809 70.2814 139.831 70.1672C139.852 70.053 139.907 69.9477 139.989 69.8646L142.955 66.8324L139.989 63.8005C139.879 63.6885 139.819 63.5376 139.82 63.381C139.822 63.2243 139.886 63.0748 139.998 62.9653C140.11 62.8557 140.261 62.7952 140.417 62.7969C140.574 62.7986 140.724 62.8625 140.833 62.9745L144.203 66.4194C144.311 66.5298 144.372 66.678 144.372 66.8324C144.372 66.9868 144.311 67.1351 144.203 67.2454L140.833 70.6906C140.778 70.7469 140.713 70.7916 140.64 70.8221C140.567 70.8527 140.49 70.8683 140.411 70.8682Z" fill="white"/>
<path d="M275.24 62H268.973C268.803 61.9999 268.635 62.0334 268.478 62.0984C268.321 62.1634 268.179 62.2586 268.058 62.3787C267.938 62.4989 267.843 62.6415 267.778 62.7984C267.713 62.9554 267.68 63.1236 267.68 63.2935V69.5661C267.68 69.7359 267.713 69.9042 267.778 70.0611C267.843 70.2181 267.938 70.3607 268.058 70.4808C268.179 70.6009 268.321 70.6962 268.478 70.7612C268.635 70.8262 268.803 70.8596 268.973 70.8596H275.24C275.584 70.8599 275.913 70.7239 276.157 70.4814C276.4 70.2389 276.538 69.9098 276.539 69.5661V63.2935C276.538 62.9498 276.4 62.6206 276.157 62.3781C275.913 62.1357 275.584 61.9997 275.24 62Z" fill="white"/>
<path d="M259.888 62H253.622C253.452 61.9999 253.284 62.0334 253.127 62.0984C252.97 62.1634 252.827 62.2586 252.707 62.3787C252.587 62.4989 252.491 62.6415 252.426 62.7984C252.361 62.9554 252.328 63.1236 252.328 63.2935V69.5661C252.328 69.7359 252.361 69.9042 252.426 70.0611C252.491 70.2181 252.587 70.3607 252.707 70.4808C252.827 70.6009 252.97 70.6962 253.127 70.7612C253.284 70.8262 253.452 70.8596 253.622 70.8596H259.888C260.232 70.8599 260.562 70.7239 260.805 70.4814C261.049 70.2389 261.186 69.9098 261.188 69.5661V63.2935C261.186 62.9498 261.049 62.6206 260.805 62.3781C260.562 62.1357 260.232 61.9997 259.888 62Z" fill="white"/>
<path d="M289.709 62H283.442C283.272 61.9999 283.104 62.0334 282.947 62.0984C282.79 62.1634 282.647 62.2586 282.527 62.3787C282.407 62.4989 282.312 62.6415 282.247 62.7984C282.182 62.9554 282.148 63.1236 282.148 63.2935V69.5661C282.148 69.7359 282.182 69.9042 282.247 70.0611C282.312 70.2181 282.407 70.3607 282.527 70.4808C282.647 70.6009 282.79 70.6962 282.947 70.7612C283.104 70.8262 283.272 70.8596 283.442 70.8596H289.709C290.052 70.8599 290.382 70.7239 290.626 70.4814C290.869 70.239 291.007 69.9098 291.008 69.5661V63.2935C291.007 62.9498 290.869 62.6206 290.626 62.3781C290.382 62.1357 290.052 61.9997 289.709 62Z" fill="white"/>
<path d="M230.911 65H164.116C163.839 64.9988 163.564 65.0366 163.307 65.1114C163.051 65.1862 162.817 65.2965 162.621 65.4359C162.424 65.5754 162.268 65.7411 162.161 65.9238C162.055 66.1064 162 66.3022 162 66.5C162 66.6978 162.055 66.8936 162.161 67.0762C162.268 67.2589 162.424 67.4246 162.621 67.5641C162.817 67.7035 163.051 67.8138 163.307 67.8886C163.564 67.9634 163.839 68.0012 164.116 68H230.911C231.466 67.9974 231.997 67.8383 232.389 67.5573C232.78 67.2762 233 66.8962 233 66.5C233 66.1038 232.78 65.7238 232.389 65.4427C231.997 65.1617 231.466 65.0026 230.911 65Z" fill="white"/>
<defs>
<filter id="filter0_d_972_3367" x="0" y="1" width="370" height="370" filterUnits="userSpaceOnUse" color-interpolation-filters="sRGB">
<feFlood flood-opacity="0" result="BackgroundImageFix"/>
<feColorMatrix in="SourceAlpha" type="matrix" values="0 0 0 0 0 0 0 0 0 0 0 0 0 0 0 0 0 0 127 0" result="hardAlpha"/>
<feOffset/>
<feGaussianBlur stdDeviation="4"/>
<feComposite in2="hardAlpha" operator="out"/>
<feColorMatrix type="matrix" values="0 0 0 0 0 0 0 0 0 0 0 0 0 0 0 0 0 0 0.1 0"/>
<feBlend mode="normal" in2="BackgroundImageFix" result="effect1_dropShadow_972_3367"/>
<feBlend mode="normal" in="SourceGraphic" in2="effect1_dropShadow_972_3367" result="shape"/>
</filter>
<filter id="filter1_d_972_3367" x="0" y="0" width="371" height="371" filterUnits="userSpaceOnUse" color-interpolation-filters="sRGB">
<feFlood flood-opacity="0" result="BackgroundImageFix"/>
<feColorMatrix in="SourceAlpha" type="matrix" values="0 0 0 0 0 0 0 0 0 0 0 0 0 0 0 0 0 0 127 0" result="hardAlpha"/>
<feOffset/>
<feGaussianBlur stdDeviation="4"/>
<feComposite in2="hardAlpha" operator="out"/>
<feColorMatrix type="matrix" values="0 0 0 0 0 0 0 0 0 0 0 0 0 0 0 0 0 0 0.1 0"/>
<feBlend mode="normal" in2="BackgroundImageFix" result="effect1_dropShadow_972_3367"/>
<feBlend mode="normal" in="SourceGraphic" in2="effect1_dropShadow_972_3367" result="shape"/>
</filter>
</defs>
</svg>
