<svg width="367" height="367" viewBox="0 0 367 367" fill="none" xmlns="http://www.w3.org/2000/svg">
<g filter="url(#filter0_d_992_2888)">
<rect x="6" y="6" width="355" height="355" rx="177.5" fill="#F4F4F4"/>
</g>
<path d="M96.3062 105.2C93.5112 95.1131 116.055 86.4634 121.975 94.5864C122.798 93.4316 125.84 92.7301 127.236 93.0843C128.632 93.4386 129.806 94.3243 130.951 95.1816C132.526 96.379 134.158 97.6189 135.124 99.3406C136.097 101.055 136.248 103.393 134.938 104.881C133.9 106.064 130.836 106.83 129.276 107.141C128.188 107.361 127.272 107.538 126.484 107.666C125.783 106.653 125.425 105.398 125.554 104.173C124.494 104.867 123.779 106.057 123.664 107.319C123.643 107.581 132.461 139.698 132.461 139.698C131.552 140.229 130.428 140.725 129.133 141.179C126.935 137.898 125.131 134.03 123.943 129.984C123.671 132.485 123.714 135.199 124.043 137.955C124.215 139.422 124.473 140.895 124.802 142.369C114.323 144.608 98.561 143.871 91.7037 134.349C91.7024 134.309 91.7013 134.27 91.7002 134.23C91.6511 132.449 89.1951 132.006 88.5379 133.665C88.3715 134.085 88.2184 134.449 88.0817 134.738C86.0847 127.667 88.6687 119.484 96.3062 105.2Z" fill="#2B2B2B"/>
<path d="M238.749 185.189C236.27 188.1 231.876 188.47 228.935 186.016C228.65 185.778 228.385 185.518 228.142 185.238L195.048 195.613L189.898 187.258L229.296 175.22C232.386 172.963 236.741 173.613 239.021 176.673C240.929 179.233 240.817 182.753 238.749 185.189Z" fill="#FFB6B6"/>
<path d="M121.551 159.263C121.551 159.263 136.206 142.946 142.59 149.877C148.974 156.808 168.891 187.181 168.891 187.181L215.384 177.471L219.88 189.616L167.089 206.549C163.121 207.822 158.772 206.502 156.206 203.246L121.551 159.263Z" fill="#1BD7BE"/>
<path d="M153.734 301.879H80.8839L80.8175 301.369L80.7749 301.028L80.1493 296.26L79.263 289.471L78.9218 286.861C78.8981 286.729 78.8743 286.602 78.8554 286.47C78.5568 284.771 78.3862 283.064 78.3246 281.361C78.2345 279.02 78.353 276.683 78.6327 274.376V274.363C78.7843 273.116 78.9786 271.881 79.2203 270.66C79.5236 269.089 79.8886 267.544 80.3104 266.033C80.7938 264.279 81.3436 262.572 81.9455 260.924C82.6375 258.996 83.3958 257.149 84.1778 255.403C84.2631 255.216 84.3484 255.029 84.429 254.846L84.4337 254.841C88.557 245.813 93.2396 239.645 93.2396 239.645H146.312C146.312 239.645 148.767 249.32 149.985 257.31C150.179 258.575 150.34 259.792 150.459 260.924C150.672 263.015 150.734 264.811 150.549 266.033C150.435 266.79 150.227 267.327 149.904 267.574C146.985 269.813 150.326 274.563 150.326 274.563C150.326 274.563 152.829 277.999 150.648 279.931C150.217 280.314 149.971 280.808 149.852 281.361C149.663 282.277 149.828 283.341 150.089 284.282C150.35 285.227 150.71 286.048 150.909 286.47C150.999 286.657 151.056 286.763 151.056 286.763L151.426 289.39L151.786 291.918L152.397 296.26L152.582 297.027L153.535 301.028L153.615 301.369L153.734 301.879Z" fill="#2B2B2B"/>
<path d="M116.664 136.939L94.4383 138.899L90.3419 151.517L85.8778 152.156C78.2493 153.25 73.7092 161.169 76.6732 168.212L80.6012 177.546C80.6012 177.546 74.8316 195.173 81.9176 202.58L84.933 235.201L78.131 256.705L157.642 259.246L144.098 232.272L143.696 215.523C143.696 215.523 152.351 185.25 144.327 175.621L141.197 148.233L124.886 145.812L116.664 136.939Z" fill="#1BD7BE"/>
<path d="M131.71 120.751C134 110.973 127.849 101.209 117.971 98.9422C108.093 96.6752 98.2282 102.764 95.9379 112.542C93.6476 122.32 99.7989 132.084 109.677 134.351C119.555 136.618 129.42 130.529 131.71 120.751Z" fill="#FFB6B6"/>
<path d="M86.2847 106.618C83.4897 96.5311 106.033 87.8813 111.953 96.0044C112.776 94.8495 115.819 94.1481 117.214 94.5023C118.61 94.8566 119.784 95.7422 120.929 96.5996C122.504 97.797 124.136 99.0369 125.102 100.759C126.076 102.473 126.226 104.811 124.916 106.299C123.878 107.482 120.815 108.248 119.254 108.559C118.166 108.779 117.25 108.956 116.463 109.084C115.761 108.071 115.403 106.816 115.532 105.591C114.473 106.285 113.757 107.475 113.643 108.737C113.621 108.999 122.44 141.116 122.44 141.116C121.531 141.647 120.407 142.143 119.111 142.597C116.914 139.316 115.11 135.448 113.922 131.402C113.65 133.903 113.693 136.617 114.022 139.373C114.194 140.84 114.451 142.313 114.781 143.787C104.301 146.026 88.5395 145.289 81.6822 135.767C81.681 135.727 81.6798 135.688 81.6787 135.648C81.6297 133.867 79.1736 133.424 78.5164 135.083C78.35 135.503 78.1969 135.867 78.0602 136.156C76.0632 129.085 78.6472 120.902 86.2847 106.618Z" fill="#2B2B2B"/>
<path d="M268.607 114.288H205.686C204.235 114.288 203.055 113.123 203.055 111.692C203.055 110.261 204.235 109.098 205.686 109.098H268.607C270.058 109.098 271.238 110.261 271.238 111.692C271.238 113.123 270.058 114.288 268.607 114.288Z" fill="#1BD7BE"/>
<path d="M268.607 123.327H205.686C204.235 123.327 203.055 122.162 203.055 120.732C203.055 119.301 204.235 118.137 205.686 118.137H268.607C270.058 118.137 271.238 119.301 271.238 120.732C271.238 122.162 270.058 123.327 268.607 123.327Z" fill="#1BD7BE"/>
<path d="M268.607 132.532H205.686C204.235 132.532 203.055 131.368 203.055 129.937C203.055 128.506 204.235 127.342 205.686 127.342H268.607C270.058 127.342 271.238 128.506 271.238 129.937C271.238 131.368 270.058 132.532 268.607 132.532Z" fill="#1BD7BE"/>
<path d="M268.607 141.739H205.686C204.235 141.739 203.055 140.575 203.055 139.144C203.055 137.713 204.235 136.549 205.686 136.549H268.607C270.058 136.549 271.238 137.713 271.238 139.144C271.238 140.575 270.058 141.739 268.607 141.739Z" fill="#1BD7BE"/>
<path d="M323.378 133.362H284.585C283.691 133.362 282.963 132.644 282.963 131.762C282.963 130.88 283.691 130.162 284.585 130.162H323.378C324.272 130.162 325 130.88 325 131.762C325 132.644 324.272 133.362 323.378 133.362Z" fill="white"/>
<path d="M303.177 165.618C303.322 165.971 303.823 165.971 303.968 165.617C304.979 163.149 306.419 160.386 307.985 158.273C308.236 157.935 307.89 157.483 307.492 157.626L304.134 158.828L304.134 138.256L303.011 138.256L303.011 158.828L299.652 157.626C299.253 157.483 298.908 157.935 299.158 158.273C300.725 160.385 302.165 163.149 303.177 165.618Z" fill="white"/>
<path d="M303.988 185.732C308.643 185.732 312.417 181.997 312.417 177.389C312.417 172.781 308.643 169.045 303.988 169.045C299.333 169.045 295.559 172.781 295.559 177.389C295.559 181.997 299.333 185.732 303.988 185.732Z" fill="white"/>
<path d="M199.005 86.0827H160.212C159.318 86.0827 158.59 85.3648 158.59 84.4826C158.59 83.6003 159.318 82.8828 160.212 82.8828H199.005C199.899 82.8828 200.627 83.6003 200.627 84.4826C200.627 85.3648 199.899 86.0827 199.005 86.0827Z" fill="white"/>
<path d="M178.804 118.34C178.949 118.694 179.45 118.694 179.595 118.34C180.606 115.872 182.046 113.108 183.612 110.996C183.863 110.658 183.517 110.206 183.119 110.349L179.761 111.551L179.761 90.9787L178.637 90.9787L178.637 111.551L175.279 110.348C174.88 110.206 174.535 110.658 174.785 110.996C176.352 113.108 177.792 115.872 178.804 118.34Z" fill="white"/>
<path d="M179.615 138.455C184.27 138.455 188.044 134.719 188.044 130.111C188.044 125.503 184.27 121.768 179.615 121.768C174.96 121.768 171.186 125.503 171.186 130.111C171.186 134.719 174.96 138.455 179.615 138.455Z" fill="white"/>
<path d="M81.8854 291.785C83.8744 288.526 82.8179 284.288 79.5256 282.319C79.2067 282.129 78.8728 281.963 78.5272 281.826L77.8291 247.471L68.1816 245.326L69.3122 286.123C68.1448 289.746 70.165 293.619 73.8244 294.774C76.8865 295.741 80.219 294.505 81.8854 291.785Z" fill="#FFB6B6"/>
<path d="M88.5973 156.243C88.5973 156.243 76.7747 153.434 72.9915 161.392C69.2083 169.349 68.8863 203.977 68.8863 203.977L66.8438 274.203L81.8402 273.549L93.7993 187.137L88.5973 156.243Z" fill="#1BD7BE"/>
<path d="M83.2922 302.148C83.5583 302.478 83.9626 302.669 84.3894 302.667H161.161C161.941 302.666 162.572 302.039 162.571 301.267C162.571 301.171 162.561 301.076 162.541 300.982L161.35 295.379C161.249 294.915 160.918 294.532 160.47 294.363C160.31 294.301 160.14 294.269 159.969 294.27H85.5764C85.4048 294.269 85.2348 294.301 85.0751 294.363C84.6269 294.532 84.2958 294.915 84.1955 295.379L83.0038 300.982C82.9179 301.394 83.0238 301.822 83.2922 302.148Z" fill="#BBBBBB"/>
<path d="M53.9004 176.716V264.372C53.9023 266.698 55.8067 268.583 58.1565 268.585H189.387C191.737 268.583 193.642 266.698 193.643 264.372V176.716C193.638 174.392 191.735 172.511 189.387 172.508H58.1565C55.809 172.511 53.906 174.392 53.9004 176.716Z" fill="#ECECEC"/>
<path d="M140.182 249.841C140.026 249.789 139.861 249.766 139.695 249.766H108.995C108.091 249.766 107.354 250.491 107.354 251.385V299.393H141.332V251.385C141.332 250.678 140.868 250.051 140.182 249.841ZM127.868 273.451C127.859 275.436 126.227 277.037 124.222 277.028C122.231 277.014 120.623 275.422 120.614 273.451V267.881C120.633 265.901 122.274 264.309 124.274 264.328C126.251 264.347 127.849 265.929 127.868 267.881V273.451Z" fill="#BBBBBB"/>
<defs>
<filter id="filter0_d_992_2888" x="0" y="0" width="367" height="367" filterUnits="userSpaceOnUse" color-interpolation-filters="sRGB">
<feFlood flood-opacity="0" result="BackgroundImageFix"/>
<feColorMatrix in="SourceAlpha" type="matrix" values="0 0 0 0 0 0 0 0 0 0 0 0 0 0 0 0 0 0 127 0" result="hardAlpha"/>
<feOffset/>
<feGaussianBlur stdDeviation="3"/>
<feComposite in2="hardAlpha" operator="out"/>
<feColorMatrix type="matrix" values="0 0 0 0 0.734831 0 0 0 0 0.734831 0 0 0 0 0.734831 0 0 0 0.6 0"/>
<feBlend mode="normal" in2="BackgroundImageFix" result="effect1_dropShadow_992_2888"/>
<feBlend mode="normal" in="SourceGraphic" in2="effect1_dropShadow_992_2888" result="shape"/>
</filter>
</defs>
</svg>
