<svg width="367" height="367" viewBox="0 0 367 367" fill="none" xmlns="http://www.w3.org/2000/svg">
<g filter="url(#filter0_d_972_3367)">
<rect x="6" y="6" width="355" height="355" rx="177.5" fill="#F4F4F4"/>
</g>
<path d="M129.516 317.421L149.096 313.176L171.783 308.254C171.783 308.254 173.012 312.012 174.735 317.421H129.516Z" fill="#2B2B2B"/>
<path d="M179.076 314.984C179.076 314.984 178.893 315.965 178.517 317.422H87.1063C86.098 314.352 85.6488 311.189 86.8496 308.577C87.0516 308.12 87.307 307.689 87.6104 307.293C87.8353 306.982 88.0868 306.69 88.3621 306.422C90.1588 304.644 91.2588 300.812 91.9188 296.449C92.7112 290.482 93.0391 284.463 92.8996 278.445C92.9088 278.436 92.9088 278.436 92.8996 278.436C92.8813 277.016 92.8446 276.163 92.8446 276.163C92.8446 276.163 92.4963 270.911 92.1021 262.972C92.1113 262.972 92.1021 262.963 92.1021 262.963C91.0205 241.54 89.5538 200.528 93.358 189.657C93.6006 188.74 94.0924 187.909 94.7788 187.255C99.9001 183.559 105.35 180.34 111.059 177.639C111.389 177.492 111.563 177.41 111.563 177.41L124.112 177.171L139.696 174.421L150.522 172.441C150.522 172.441 151.319 172.496 152.566 172.671C156.709 173.239 165.821 175.1 167.104 180.49C167.104 180.499 167.113 180.508 167.113 180.517C167.276 181.224 167.304 181.955 167.196 182.672C165.968 191.655 174.639 246.829 177.279 249.589C179.919 252.348 179.223 262.431 172.696 268.839C171.546 270.024 170.708 271.476 170.258 273.065C167.792 280.994 171.66 293.946 175.446 300.006C178.197 304.494 179.467 309.734 179.076 314.984Z" fill="#2B2B2B"/>
<path d="M228.998 138.594L228.735 129.001L228.384 116.138L218.129 115.664L216.693 128.445L215.355 140.321L228.998 138.594Z" fill="#FFB6B6"/>
<path d="M123.965 179.209L138.351 194.649C138.351 194.649 199.308 204.494 199.716 199.325C200.124 194.155 196.109 192.658 202.691 193.117C209.273 193.577 210.854 198.253 211.857 193.781C212.86 189.308 207.342 189.199 213.731 188.565C220.121 187.931 234.078 132.141 234.078 132.141L211.815 135.731C211.815 135.731 207.488 162.706 204.775 166.153C202.062 169.601 199.339 172.074 197.665 172.223C195.991 172.373 123.965 179.209 123.965 179.209Z" fill="#2B2B2B"/>
<path d="M132.209 159.246C143.881 159.246 153.343 149.783 153.343 138.111C153.343 126.439 143.881 116.977 132.209 116.977C120.536 116.977 111.074 126.439 111.074 138.111C111.074 149.783 120.536 159.246 132.209 159.246Z" fill="#FFB6B6"/>
<path d="M115.743 156.317L124.122 157.921C124.122 157.921 116.33 145.344 116.788 139.587C117.247 133.831 123.517 131.768 123.517 131.768C123.517 131.768 126.991 132.52 130.648 132.942C131.086 131.708 131.655 130.525 132.344 129.412C132.48 130.849 133.116 132.192 134.141 133.207C135.481 133.323 136.831 133.167 138.11 132.749C139.558 132.089 139.531 130.943 139.054 129.871C146.03 130.21 152.639 133.602 152.639 133.602C152.85 130.787 152.742 127.958 152.318 125.168C152.117 125.113 151.915 125.049 151.713 124.985C150.464 124.59 149.26 124.064 148.12 123.417C149.388 123.249 150.573 122.692 151.512 121.822C150.742 119.567 149.513 117.615 147.579 116.661C145.713 115.749 143.673 115.248 141.596 115.193C139.52 115.137 137.455 115.529 135.543 116.341C135.543 116.341 140.026 113.068 138.376 111.73C138.266 111.84 138.156 111.941 138.037 112.041C137.881 112.17 137.707 112.307 137.542 112.436C136.524 113.261 135.002 112.096 134.801 110.85C134.779 110.692 134.748 110.536 134.709 110.382C134.682 110.254 134.645 110.126 134.608 110.006C134.577 109.901 134.54 109.797 134.498 109.695C131.446 108.961 122.215 111.941 118.667 118.504C118.667 118.504 93.8713 130.421 115.743 156.317Z" fill="#2B2B2B"/>
<path d="M105.608 317.418H93.7643L93.3607 316.749L87.6134 307.289L84.4414 302.063L91.9216 296.445L95.4419 293.805L103.206 311.835L105.608 317.418Z" fill="#FFB6B6"/>
<path d="M111.062 177.634L140.616 245.917L152.569 172.666C151.323 172.491 150.525 172.436 150.525 172.436L145.438 162.555L116.297 164.067L111.567 177.405C111.567 177.405 111.392 177.487 111.062 177.634Z" fill="#4CDBC7"/>
<path d="M149.946 317.417H126.672L141.532 275.25L149.094 313.173L149.946 317.417Z" fill="#4CDBC7"/>
<path opacity="0.5" d="M291.451 188.023H224.55C213.943 188.023 205.344 196.622 205.344 207.229V231.416C205.344 242.024 213.943 250.623 224.55 250.623H291.451C302.059 250.623 310.658 242.024 310.658 231.416V207.229C310.658 196.622 302.059 188.023 291.451 188.023Z" fill="white"/>
<path d="M291.455 251.34H224.553C219.271 251.334 214.206 249.233 210.471 245.498C206.736 241.762 204.635 236.698 204.629 231.416V207.229C204.635 201.947 206.736 196.882 210.471 193.147C214.206 189.412 219.271 187.311 224.553 187.305H291.455C296.737 187.311 301.801 189.412 305.537 193.147C309.272 196.882 311.373 201.947 311.379 207.229V231.416C311.373 236.698 309.272 241.762 305.537 245.498C301.801 249.233 296.737 251.334 291.455 251.34ZM224.553 188.741C219.652 188.747 214.952 190.696 211.486 194.162C208.02 197.628 206.071 202.327 206.065 207.229V231.416C206.071 236.317 208.02 241.017 211.486 244.483C214.952 247.949 219.652 249.898 224.553 249.904H291.455C296.356 249.898 301.056 247.949 304.521 244.483C307.987 241.017 309.937 236.317 309.943 231.416V207.229C309.937 202.327 307.987 197.628 304.521 194.162C301.056 190.696 296.356 188.747 291.455 188.741L224.553 188.741Z" fill="white"/>
<path d="M257.917 237.054C266.389 237.054 273.257 230.186 273.257 221.714C273.257 213.243 266.389 206.375 257.917 206.375C249.446 206.375 242.578 213.243 242.578 221.714C242.578 230.186 249.446 237.054 257.917 237.054Z" fill="#FFB6B6"/>
<path d="M261.285 236.969C259.402 232.77 269.606 224.058 263.068 223.616C263.068 223.616 258.77 216.081 256.041 218.101C252.881 220.44 248.277 216.192 245.572 213.349C246.147 212.885 246.664 212.352 247.11 211.761C246.25 211.919 245.379 212.01 244.505 212.034C244.181 211.554 243.954 211.015 243.838 210.448C243.711 209.911 243.752 209.348 243.954 208.835C244.156 208.322 244.511 207.883 244.97 207.577C245.961 207.025 247.227 207.362 248.287 206.966C248.419 206.901 248.534 206.806 248.621 206.687C248.708 206.569 248.765 206.431 248.787 206.285C248.867 205.943 249.021 205.622 249.238 205.346C249.456 205.07 249.732 204.845 250.046 204.687C250.361 204.53 250.706 204.444 251.057 204.435C251.409 204.427 251.758 204.496 252.08 204.637C252.202 204.707 252.34 204.745 252.481 204.749C253.22 204.702 253.95 204.567 254.657 204.348C253.864 203.977 253.1 203.546 252.373 203.059C252.223 202.958 252.074 202.856 251.927 202.749C252.586 202.214 253.352 201.827 254.174 201.616C254.996 201.404 255.854 201.373 256.689 201.523C258.441 201.864 260.129 202.474 261.694 203.33C262.621 203.782 263.547 204.233 264.471 204.683C266.464 205.561 268.36 206.647 270.125 207.924C271.967 209.371 273.466 211.207 274.515 213.301C275.565 215.395 276.139 217.695 276.197 220.036C276.282 224.708 272.285 237.509 261.285 236.969Z" fill="#2B2B2B"/>
<path opacity="0.5" d="M166.752 249.074H99.8506C89.2434 249.074 80.6445 257.673 80.6445 268.28V292.467C80.6445 303.075 89.2434 311.673 99.8506 311.673H166.752C177.359 311.673 185.958 303.075 185.958 292.467V268.28C185.958 257.673 177.359 249.074 166.752 249.074Z" fill="white"/>
<path d="M166.752 312.395H99.85C94.5676 312.389 89.5033 310.288 85.7681 306.552C82.0329 302.817 79.9318 297.753 79.9258 292.47V268.284C79.9318 263.001 82.0329 257.937 85.7681 254.202C89.5033 250.466 94.5676 248.365 99.85 248.359H166.752C172.034 248.365 177.098 250.466 180.834 254.202C184.569 257.937 186.67 263.001 186.676 268.284V292.47C186.67 297.753 184.569 302.817 180.833 306.552C177.098 310.288 172.034 312.389 166.752 312.395ZM99.85 249.796C94.9484 249.801 90.2492 251.751 86.7832 255.217C83.3172 258.683 81.3676 263.382 81.3621 268.284V292.47C81.3676 297.372 83.3172 302.071 86.7832 305.537C90.2492 309.003 94.9484 310.953 99.85 310.958H166.752C171.653 310.953 176.352 309.003 179.818 305.537C183.284 302.071 185.234 297.372 185.24 292.47V268.284C185.234 263.382 183.284 258.683 179.818 255.217C176.352 251.751 171.653 249.801 166.752 249.796H99.85Z" fill="white"/>
<path d="M134.328 300.339C142.935 300.339 149.913 293.361 149.913 284.753C149.913 276.146 142.935 269.168 134.328 269.168C125.72 269.168 118.742 276.146 118.742 284.753C118.742 293.361 125.72 300.339 134.328 300.339Z" fill="#FFB6B6"/>
<path d="M124.177 288.758C123.983 288.693 123.778 288.67 123.574 288.691C123.371 288.713 123.174 288.777 122.998 288.881C122.822 288.984 122.67 289.124 122.552 289.292C122.435 289.459 122.354 289.65 122.317 289.851C122.265 290.264 122.299 290.682 122.415 291.082C122.531 291.481 122.728 291.853 122.992 292.173C123.525 292.811 124.002 293.492 124.418 294.21C124.621 294.574 124.717 294.987 124.693 295.403C124.669 295.819 124.526 296.219 124.283 296.556C124.017 296.815 123.684 296.993 123.321 297.069C122.959 297.146 122.582 297.118 122.234 296.989C121.543 296.718 120.932 296.277 120.458 295.705C117.478 292.472 114.37 287.105 115.893 282.981C116.02 282.541 116.07 282.081 116.042 281.624C116.071 281.099 116.168 280.309 115.674 280.13C114.295 279.632 118.165 271.57 124.138 269.816C123.847 267.063 138.218 263.103 137.433 266.559C137.293 267.18 138.68 266.842 139.316 266.877C144.191 267.141 149.698 268.366 149.254 274.017C149.082 276.205 149.987 275.701 150.714 277.772C149.582 278.447 149.21 279.927 148.337 278.939C147.465 277.952 146.719 276.714 145.468 276.3C144.136 275.858 142.69 276.519 141.554 277.343C140.418 278.167 139.375 279.19 138.04 279.622C136.542 280.106 134.908 279.769 133.347 279.965C131.118 280.347 129.106 281.53 127.687 283.29C126.288 285.04 125.108 286.953 124.172 288.989" fill="#2B2B2B"/>
<path d="M115.408 187.082L94.3249 187.999C94.3249 187.999 63.158 241.166 66.8247 244.832C70.4914 248.499 74.2372 246.418 69.6143 251.125C64.9913 255.833 60.408 253.999 63.158 257.666C65.908 261.333 69.5747 257.207 65.908 262.478C62.2413 267.749 92.0332 317.419 92.0332 317.419L104.867 311.002C104.867 311.002 92.3781 278.186 91.5182 273.884C90.6582 269.583 90.5448 265.906 91.5182 264.536C92.4915 263.166 115.408 187.082 115.408 187.082Z" fill="#2B2B2B"/>
<path d="M223.381 203.792C226.11 203.792 228.324 201.579 228.324 198.849C228.324 196.119 226.11 193.906 223.381 193.906C220.651 193.906 218.438 196.119 218.438 198.849C218.438 201.579 220.651 203.792 223.381 203.792Z" fill="#4CDBC7"/>
<path d="M222.713 201.423C222.628 201.423 222.544 201.403 222.467 201.365C222.391 201.326 222.324 201.271 222.273 201.203L220.925 199.405C220.881 199.347 220.849 199.281 220.83 199.211C220.812 199.141 220.808 199.068 220.818 198.996C220.828 198.924 220.852 198.855 220.889 198.792C220.926 198.73 220.974 198.675 221.032 198.632C221.09 198.588 221.156 198.557 221.227 198.539C221.297 198.521 221.37 198.517 221.442 198.528C221.514 198.538 221.583 198.563 221.645 198.6C221.707 198.637 221.761 198.687 221.804 198.745L222.687 199.921L224.953 196.522C225.034 196.401 225.159 196.317 225.302 196.288C225.445 196.259 225.594 196.289 225.715 196.37C225.836 196.451 225.921 196.576 225.949 196.719C225.978 196.862 225.948 197.011 225.868 197.132L223.171 201.178C223.122 201.251 223.056 201.311 222.979 201.354C222.902 201.396 222.816 201.42 222.728 201.422L222.713 201.423Z" fill="white"/>
<path d="M102.74 265.554C105.47 265.554 107.683 263.341 107.683 260.611C107.683 257.881 105.47 255.668 102.74 255.668C100.01 255.668 97.7969 257.881 97.7969 260.611C97.7969 263.341 100.01 265.554 102.74 265.554Z" fill="#4CDBC7"/>
<path d="M102.065 263.184C101.979 263.184 101.895 263.164 101.819 263.126C101.742 263.088 101.676 263.033 101.625 262.964L100.276 261.166C100.232 261.109 100.2 261.043 100.182 260.973C100.164 260.902 100.159 260.829 100.169 260.758C100.179 260.686 100.203 260.617 100.24 260.554C100.277 260.492 100.326 260.437 100.384 260.394C100.442 260.35 100.508 260.319 100.578 260.301C100.649 260.283 100.722 260.279 100.793 260.289C100.865 260.3 100.934 260.325 100.996 260.362C101.059 260.399 101.113 260.448 101.156 260.507L102.038 261.683L104.304 258.284C104.344 258.224 104.396 258.172 104.456 258.132C104.516 258.092 104.583 258.064 104.654 258.05C104.725 258.036 104.798 258.036 104.868 258.05C104.939 258.064 105.007 258.091 105.067 258.131C105.127 258.171 105.178 258.223 105.219 258.283C105.259 258.343 105.287 258.41 105.301 258.481C105.315 258.552 105.315 258.625 105.301 258.696C105.287 258.766 105.259 258.834 105.219 258.894L102.522 262.939C102.473 263.013 102.408 263.073 102.331 263.116C102.254 263.158 102.168 263.182 102.08 263.184L102.065 263.184Z" fill="white"/>
<path d="M294.478 206.428C293.513 206.428 292.569 206.142 291.767 205.606C290.964 205.07 290.339 204.308 289.969 203.416C289.6 202.524 289.503 201.543 289.691 200.596C289.88 199.649 290.345 198.78 291.027 198.097C291.71 197.415 292.579 196.95 293.526 196.762C294.472 196.573 295.454 196.67 296.345 197.039C297.237 197.409 297.999 198.034 298.536 198.837C299.072 199.639 299.358 200.583 299.358 201.548C299.358 202.843 298.844 204.084 297.929 204.999C297.014 205.914 295.772 206.428 294.478 206.428Z" fill="#ECECEC"/>
<path d="M296.184 202.569L295.163 201.548L296.184 200.527C296.229 200.482 296.265 200.429 296.289 200.371C296.314 200.312 296.327 200.249 296.327 200.186C296.327 200.123 296.315 200.06 296.291 200.001C296.266 199.942 296.231 199.889 296.186 199.844C296.141 199.799 296.088 199.764 296.029 199.74C295.97 199.715 295.908 199.703 295.844 199.703C295.781 199.703 295.718 199.716 295.659 199.741C295.601 199.765 295.548 199.801 295.503 199.846L294.482 200.867L293.461 199.846C293.37 199.756 293.248 199.706 293.12 199.706C292.993 199.706 292.871 199.757 292.781 199.847C292.691 199.937 292.64 200.059 292.64 200.187C292.64 200.314 292.69 200.437 292.78 200.527L293.801 201.548L292.78 202.569C292.735 202.614 292.699 202.667 292.674 202.726C292.65 202.784 292.637 202.847 292.637 202.91C292.637 202.974 292.649 203.037 292.673 203.095C292.697 203.154 292.733 203.207 292.778 203.252C292.823 203.297 292.876 203.333 292.935 203.357C292.993 203.381 293.056 203.394 293.12 203.393C293.183 203.393 293.246 203.38 293.304 203.356C293.363 203.331 293.416 203.295 293.461 203.25L294.482 202.229L295.503 203.25C295.548 203.295 295.601 203.331 295.659 203.355C295.718 203.38 295.78 203.392 295.844 203.392C295.907 203.392 295.97 203.38 296.028 203.356C296.087 203.332 296.14 203.296 296.185 203.251C296.23 203.206 296.265 203.153 296.289 203.095C296.313 203.036 296.326 202.973 296.326 202.91C296.326 202.847 296.313 202.784 296.289 202.726C296.264 202.667 296.229 202.614 296.184 202.569Z" fill="white"/>
<path d="M168.087 265.319C167.122 265.319 166.178 265.033 165.376 264.497C164.573 263.96 163.948 263.198 163.579 262.306C163.209 261.415 163.112 260.433 163.301 259.487C163.489 258.54 163.954 257.67 164.636 256.988C165.319 256.305 166.189 255.841 167.135 255.652C168.082 255.464 169.063 255.561 169.955 255.93C170.847 256.299 171.609 256.925 172.145 257.728C172.681 258.53 172.967 259.474 172.967 260.439C172.967 261.733 172.453 262.974 171.538 263.89C170.623 264.805 169.382 265.319 168.087 265.319Z" fill="#ECECEC"/>
<path d="M169.785 261.461L168.764 260.44L169.785 259.418C169.875 259.328 169.925 259.206 169.924 259.079C169.924 258.952 169.873 258.83 169.783 258.74C169.693 258.65 169.572 258.599 169.444 258.599C169.317 258.598 169.195 258.648 169.105 258.738L168.083 259.759L167.062 258.738C166.972 258.648 166.849 258.597 166.722 258.598C166.595 258.598 166.472 258.649 166.382 258.739C166.292 258.829 166.242 258.951 166.241 259.078C166.241 259.206 166.292 259.328 166.381 259.418L167.403 260.44L166.381 261.461C166.336 261.505 166.3 261.559 166.276 261.617C166.251 261.676 166.238 261.738 166.238 261.802C166.238 261.865 166.25 261.928 166.275 261.987C166.299 262.046 166.334 262.099 166.379 262.144C166.424 262.189 166.477 262.224 166.536 262.248C166.595 262.273 166.658 262.285 166.721 262.285C166.785 262.285 166.847 262.272 166.906 262.247C166.965 262.223 167.018 262.187 167.062 262.142L168.083 261.12L169.105 262.142C169.195 262.231 169.317 262.282 169.445 262.282C169.572 262.282 169.694 262.231 169.784 262.141C169.875 262.051 169.925 261.928 169.925 261.801C169.926 261.674 169.875 261.551 169.785 261.461Z" fill="white"/>
<path d="M223.297 119.931C228.057 119.931 231.915 116.072 231.915 111.313C231.915 106.554 228.057 102.695 223.297 102.695C218.538 102.695 214.68 106.554 214.68 111.313C214.68 116.072 218.538 119.931 223.297 119.931Z" fill="#FFB6B6"/>
<path opacity="0.5" d="M291.221 109.012H224.319C213.712 109.012 205.113 117.611 205.113 128.218V152.405C205.113 163.012 213.712 171.611 224.319 171.611H291.221C301.828 171.611 310.427 163.012 310.427 152.405V128.218C310.427 117.611 301.828 109.012 291.221 109.012Z" fill="white"/>
<path d="M291.221 172.333H224.319C219.036 172.327 213.972 170.225 210.237 166.49C206.502 162.755 204.401 157.691 204.395 152.408V128.221C204.401 122.939 206.502 117.874 210.237 114.139C213.972 110.404 219.036 108.303 224.319 108.297H291.221C296.503 108.303 301.568 110.404 305.303 114.139C309.038 117.874 311.139 122.939 311.145 128.221V152.408C311.139 157.691 309.038 162.755 305.303 166.49C301.568 170.225 296.503 172.327 291.221 172.333ZM224.319 109.733C219.417 109.739 214.718 111.688 211.252 115.154C207.786 118.62 205.836 123.32 205.831 128.221V152.408C205.836 157.31 207.786 162.009 211.252 165.475C214.718 168.941 219.417 170.891 224.319 170.896H291.221C296.123 170.891 300.822 168.941 304.288 165.475C307.754 162.009 309.703 157.31 309.709 152.408V128.221C309.703 123.32 307.754 118.62 304.288 115.154C300.822 111.688 296.123 109.739 291.221 109.733H224.319Z" fill="white"/>
<path d="M277.763 142.11C277.807 146.129 279.086 154.498 278.169 158.435L278.021 158.106C277.259 158.71 276.449 159.252 275.599 159.726C274.987 158.235 274.07 156.889 272.909 155.772C273.062 157.62 272.843 159.479 272.266 161.241C268.834 162.477 262.811 158.583 259.077 158.501C253.069 158.364 247.216 156.87 241.477 155.289C239.44 154.729 237.2 153.998 236.277 152.307C235.355 150.616 237.006 148.79 236.898 146.882C236.128 133.288 242.603 131.009 248.764 127.377C250.12 126.578 250.785 124.857 252.317 124.187C254.442 123.259 256.973 123.704 259.285 124.17C258.711 123.981 258.195 123.647 257.788 123.201C257.38 122.755 257.094 122.211 256.957 121.622C256.861 121.045 256.925 120.453 257.144 119.91C257.363 119.368 257.728 118.896 258.198 118.547C258.899 118.089 259.692 117.79 260.521 117.671C261.351 117.552 262.196 117.617 262.997 117.861C264.568 118.352 266.053 119.082 267.401 120.025C268.317 120.527 269.135 121.189 269.817 121.979C270.139 122.354 270.338 122.817 270.389 123.308C270.44 123.798 270.34 124.293 270.103 124.725C269.81 125.096 269.437 125.395 269.012 125.601C268.587 125.808 268.121 125.916 267.648 125.917C266.92 125.938 266.193 125.862 265.485 125.691C268.73 126.492 271.655 128.262 273.87 130.765C276.621 133.967 277.714 138.09 277.763 142.11Z" fill="#2B2B2B"/>
<path d="M256.211 155.2C263.564 155.2 269.524 149.239 269.524 141.887C269.524 134.535 263.564 128.574 256.211 128.574C248.859 128.574 242.898 134.535 242.898 141.887C242.898 149.239 248.859 155.2 256.211 155.2Z" fill="#FFB6B6"/>
<path d="M270.737 139.876C269.172 141.77 266.843 141.672 264.773 141.37C264.12 141.276 263.466 141.172 262.813 141.051C262.698 140.683 262.566 140.315 262.418 139.958C261.805 138.468 260.889 137.121 259.727 136.005C259.849 137.465 259.736 138.935 259.392 140.359C258.178 140.079 256.97 139.766 255.768 139.42C254.704 139.247 253.747 138.672 253.095 137.814C252.443 136.955 252.146 135.879 252.264 134.808C250.535 136.126 248.651 137.268 246.674 137.29C245.56 137.261 244.484 136.876 243.605 136.191C242.725 135.506 242.088 134.557 241.787 133.484C241.328 131.746 241.248 129.93 241.551 128.158C241.815 126.044 242.408 123.721 243.836 122.87C244.983 122.178 246.307 122.672 247.487 123.232C250.088 124.481 252.554 125.993 254.845 127.746L254.873 128.323C255.466 125.484 257.426 123.293 259.562 123.073C261.001 122.93 262.407 123.595 263.763 124.265C265.536 125.047 267.184 126.085 268.656 127.345C270.318 128.857 271.472 130.846 271.961 133.039C272.472 135.417 272.088 138.24 270.737 139.876Z" fill="#2B2B2B"/>
<path d="M257.56 121.401C257.697 121.412 257.361 121.335 257.47 121.381C257.417 121.357 257.365 121.328 257.317 121.295C257.308 121.29 257.2 121.202 257.271 121.263C257.108 121.136 256.985 120.965 256.918 120.77C256.766 120.297 256.696 119.801 256.709 119.304C256.737 118.65 256.625 117.998 256.383 117.391C256.311 117.227 256.201 117.082 256.062 116.967C255.924 116.853 255.76 116.773 255.585 116.734C255.41 116.695 255.228 116.698 255.054 116.743C254.88 116.787 254.719 116.872 254.584 116.99C254.205 117.501 254.021 118.132 254.067 118.767C254.033 119.382 254.098 119.998 254.26 120.592C254.539 121.568 255.096 122.443 255.863 123.108C256.748 123.884 257.86 124.354 259.034 124.447C259.195 124.444 259.352 124.393 259.485 124.302C259.618 124.211 259.722 124.083 259.784 123.934C259.845 123.785 259.862 123.621 259.833 123.463C259.803 123.304 259.728 123.158 259.616 123.041L258.142 121.642C257.988 121.489 257.779 121.404 257.561 121.404C257.344 121.405 257.135 121.492 256.981 121.646C256.827 121.799 256.741 122.008 256.74 122.225C256.739 122.443 256.825 122.652 256.978 122.807L258.452 124.206L259.034 122.8C258.791 122.778 258.551 122.729 258.318 122.654C258.066 122.584 257.826 122.478 257.603 122.34C257.386 122.221 257.182 122.078 256.995 121.915C256.875 121.81 256.761 121.699 256.653 121.582C256.613 121.54 256.575 121.497 256.537 121.453C256.54 121.456 256.382 121.258 256.45 121.348C256.28 121.115 256.131 120.867 256.007 120.606C255.963 120.514 255.927 120.418 255.899 120.32C255.847 120.159 255.804 119.994 255.771 119.828C255.708 119.478 255.689 119.122 255.715 118.767C255.722 118.617 255.737 118.467 255.76 118.318C255.78 118.24 255.796 118.16 255.806 118.079C255.809 117.879 255.778 118.186 255.674 118.233L255.258 118.345C255.191 118.34 255.125 118.319 255.066 118.285C255.008 118.25 254.958 118.203 254.92 118.147C254.902 118.078 254.907 118.09 254.934 118.183C254.966 118.293 254.99 118.404 255.007 118.516C255.039 118.778 255.057 119.04 255.062 119.303C255.067 119.861 255.132 120.416 255.255 120.96C255.371 121.506 255.656 122.002 256.069 122.377C256.483 122.752 257.005 122.987 257.56 123.048C257.778 123.046 257.987 122.959 258.141 122.805C258.295 122.651 258.382 122.442 258.384 122.224C258.379 122.007 258.291 121.8 258.138 121.647C257.984 121.493 257.777 121.405 257.56 121.401Z" fill="#2B2B2B"/>
<path d="M224.822 124.796C227.552 124.796 229.765 122.583 229.765 119.853C229.765 117.123 227.552 114.91 224.822 114.91C222.092 114.91 219.879 117.123 219.879 119.853C219.879 122.583 222.092 124.796 224.822 124.796Z" fill="#4CDBC7"/>
<path d="M224.151 122.427C224.065 122.427 223.981 122.407 223.905 122.368C223.828 122.33 223.762 122.275 223.711 122.207L222.362 120.408C222.318 120.351 222.286 120.285 222.268 120.215C222.25 120.145 222.245 120.072 222.255 120C222.265 119.928 222.289 119.859 222.326 119.796C222.363 119.734 222.412 119.679 222.47 119.636C222.528 119.592 222.594 119.561 222.664 119.543C222.735 119.525 222.808 119.521 222.879 119.532C222.951 119.542 223.02 119.567 223.082 119.604C223.145 119.641 223.199 119.69 223.242 119.749L224.124 120.925L226.39 117.526C226.471 117.405 226.597 117.321 226.74 117.292C226.883 117.263 227.031 117.293 227.153 117.374C227.274 117.454 227.358 117.58 227.387 117.723C227.415 117.866 227.386 118.015 227.305 118.136L224.608 122.182C224.559 122.255 224.494 122.315 224.417 122.358C224.34 122.4 224.254 122.424 224.166 122.426L224.151 122.427Z" fill="white"/>
<path d="M292.326 125.28C291.36 125.28 290.417 124.994 289.614 124.457C288.812 123.921 288.186 123.159 287.817 122.267C287.447 121.376 287.351 120.394 287.539 119.448C287.727 118.501 288.192 117.631 288.875 116.949C289.557 116.266 290.427 115.802 291.373 115.613C292.32 115.425 293.301 115.522 294.193 115.891C295.085 116.26 295.847 116.886 296.383 117.688C296.92 118.491 297.206 119.435 297.206 120.4C297.206 121.694 296.692 122.935 295.776 123.851C294.861 124.766 293.62 125.28 292.326 125.28Z" fill="#ECECEC"/>
<path d="M294.028 121.425L293.006 120.404L294.028 119.383C294.073 119.338 294.109 119.285 294.133 119.226C294.158 119.168 294.17 119.105 294.171 119.041C294.171 118.978 294.158 118.915 294.134 118.856C294.11 118.798 294.075 118.744 294.03 118.7C293.985 118.655 293.931 118.619 293.873 118.595C293.814 118.571 293.751 118.558 293.688 118.559C293.624 118.559 293.562 118.572 293.503 118.596C293.444 118.621 293.391 118.657 293.347 118.702L292.326 119.723L291.304 118.702C291.214 118.612 291.092 118.562 290.964 118.562C290.837 118.562 290.715 118.613 290.625 118.703C290.534 118.793 290.484 118.915 290.484 119.042C290.483 119.17 290.534 119.292 290.624 119.383L291.645 120.404L290.624 121.425C290.578 121.47 290.543 121.523 290.518 121.581C290.493 121.64 290.481 121.702 290.48 121.766C290.48 121.829 290.493 121.892 290.517 121.951C290.541 122.01 290.577 122.063 290.621 122.108C290.666 122.153 290.72 122.188 290.778 122.212C290.837 122.237 290.9 122.249 290.963 122.249C291.027 122.249 291.09 122.236 291.148 122.211C291.207 122.187 291.26 122.151 291.304 122.106L292.326 121.084L293.347 122.106C293.391 122.151 293.444 122.186 293.503 122.211C293.561 122.235 293.624 122.248 293.687 122.248C293.751 122.248 293.814 122.235 293.872 122.211C293.931 122.187 293.984 122.151 294.029 122.107C294.073 122.062 294.109 122.009 294.133 121.95C294.157 121.892 294.17 121.829 294.17 121.766C294.169 121.702 294.157 121.64 294.133 121.581C294.108 121.523 294.072 121.47 294.028 121.425Z" fill="white"/>
<path d="M325.294 79H41.7059C41.5187 79 41.3392 78.9473 41.2068 78.8535C41.0744 78.7598 41 78.6326 41 78.5C41 78.3674 41.0744 78.2402 41.2068 78.1465C41.3392 78.0527 41.5187 78 41.7059 78H325.294C325.481 78 325.661 78.0527 325.793 78.1465C325.926 78.2402 326 78.3674 326 78.5C326 78.6326 325.926 78.7598 325.793 78.8535C325.661 78.9473 325.481 79 325.294 79Z" fill="white"/>
<path d="M78.5573 69.9368C81.3158 69.9368 83.5521 67.6507 83.5521 64.8307C83.5521 62.0107 81.3158 59.7246 78.5573 59.7246C75.7987 59.7246 73.5625 62.0107 73.5625 64.8307C73.5625 67.6507 75.7987 69.9368 78.5573 69.9368Z" fill="white"/>
<path d="M95.819 69.9368C98.5775 69.9368 100.814 67.6507 100.814 64.8307C100.814 62.0107 98.5775 59.7246 95.819 59.7246C93.0605 59.7246 90.8242 62.0107 90.8242 64.8307C90.8242 67.6507 93.0605 69.9368 95.819 69.9368Z" fill="white"/>
<path d="M113.073 69.9368C115.831 69.9368 118.068 67.6507 118.068 64.8307C118.068 62.0107 115.831 59.7246 113.073 59.7246C110.314 59.7246 108.078 62.0107 108.078 64.8307C108.078 67.6507 110.314 69.9368 113.073 69.9368Z" fill="white"/>
<path d="M132.746 68.8682C132.667 68.8683 132.589 68.8527 132.517 68.8222C132.444 68.7917 132.379 68.7469 132.324 68.6906L128.954 65.2454C128.846 65.1351 128.785 64.9868 128.785 64.8324C128.785 64.678 128.846 64.5298 128.954 64.4194L132.324 60.9745C132.378 60.9191 132.443 60.8748 132.514 60.8444C132.585 60.8139 132.662 60.7978 132.74 60.7969C132.817 60.7961 132.894 60.8105 132.966 60.8394C133.038 60.8683 133.104 60.911 133.159 60.9653C133.215 61.0195 133.259 61.0841 133.289 61.1555C133.32 61.2268 133.336 61.3034 133.337 61.381C133.337 61.4585 133.323 61.5355 133.294 61.6075C133.265 61.6794 133.223 61.745 133.168 61.8005L130.202 64.8324L133.168 67.8646C133.25 67.9477 133.305 68.053 133.326 68.1672C133.348 68.2814 133.336 68.3995 133.29 68.5066C133.245 68.6138 133.17 68.7053 133.073 68.7696C132.976 68.8339 132.862 68.8682 132.746 68.8682Z" fill="white"/>
<path d="M138.411 68.8682C138.295 68.8682 138.181 68.8339 138.084 68.7696C137.987 68.7053 137.912 68.6138 137.867 68.5066C137.821 68.3995 137.809 68.2814 137.831 68.1672C137.852 68.053 137.907 67.9477 137.989 67.8646L140.955 64.8324L137.989 61.8005C137.879 61.6885 137.819 61.5376 137.82 61.381C137.822 61.2243 137.886 61.0748 137.998 60.9653C138.11 60.8557 138.261 60.7952 138.417 60.7969C138.574 60.7986 138.724 60.8625 138.833 60.9745L142.203 64.4194C142.311 64.5298 142.372 64.678 142.372 64.8324C142.372 64.9868 142.311 65.1351 142.203 65.2454L138.833 68.6906C138.778 68.7469 138.713 68.7916 138.64 68.8221C138.567 68.8527 138.49 68.8683 138.411 68.8682Z" fill="white"/>
<path d="M273.24 60H266.973C266.803 59.9999 266.635 60.0334 266.478 60.0984C266.321 60.1634 266.179 60.2586 266.058 60.3787C265.938 60.4989 265.843 60.6415 265.778 60.7984C265.713 60.9554 265.68 61.1236 265.68 61.2935V67.5661C265.68 67.7359 265.713 67.9042 265.778 68.0611C265.843 68.2181 265.938 68.3607 266.058 68.4808C266.179 68.6009 266.321 68.6962 266.478 68.7612C266.635 68.8262 266.803 68.8596 266.973 68.8596H273.24C273.584 68.8599 273.913 68.7239 274.157 68.4814C274.4 68.2389 274.538 67.9098 274.539 67.5661V61.2935C274.538 60.9498 274.4 60.6206 274.157 60.3781C273.913 60.1357 273.584 59.9997 273.24 60Z" fill="white"/>
<path d="M257.888 60H251.622C251.452 59.9999 251.284 60.0334 251.127 60.0984C250.97 60.1634 250.827 60.2586 250.707 60.3787C250.587 60.4989 250.491 60.6415 250.426 60.7984C250.361 60.9554 250.328 61.1236 250.328 61.2935V67.5661C250.328 67.7359 250.361 67.9042 250.426 68.0611C250.491 68.2181 250.587 68.3607 250.707 68.4808C250.827 68.6009 250.97 68.6962 251.127 68.7612C251.284 68.8262 251.452 68.8596 251.622 68.8596H257.888C258.232 68.8599 258.562 68.7239 258.805 68.4814C259.049 68.2389 259.186 67.9098 259.188 67.5661V61.2935C259.186 60.9498 259.049 60.6206 258.805 60.3781C258.562 60.1357 258.232 59.9997 257.888 60Z" fill="white"/>
<path d="M287.709 60H281.442C281.272 59.9999 281.104 60.0334 280.947 60.0984C280.79 60.1634 280.647 60.2586 280.527 60.3787C280.407 60.4989 280.312 60.6415 280.247 60.7984C280.182 60.9554 280.148 61.1236 280.148 61.2935V67.5661C280.148 67.7359 280.182 67.9042 280.247 68.0611C280.312 68.2181 280.407 68.3607 280.527 68.4808C280.647 68.6009 280.79 68.6962 280.947 68.7612C281.104 68.8262 281.272 68.8596 281.442 68.8596H287.709C288.052 68.8599 288.382 68.7239 288.626 68.4814C288.869 68.239 289.007 67.9098 289.008 67.5661V61.2935C289.007 60.9498 288.869 60.6206 288.626 60.3781C288.382 60.1357 288.052 59.9997 287.709 60Z" fill="white"/>
<path d="M228.911 63H162.116C161.839 62.9988 161.564 63.0366 161.307 63.1114C161.051 63.1862 160.817 63.2965 160.621 63.4359C160.424 63.5754 160.268 63.7411 160.161 63.9238C160.055 64.1064 160 64.3022 160 64.5C160 64.6978 160.055 64.8936 160.161 65.0762C160.268 65.2589 160.424 65.4246 160.621 65.5641C160.817 65.7035 161.051 65.8138 161.307 65.8886C161.564 65.9634 161.839 66.0012 162.116 66H228.911C229.466 65.9974 229.997 65.8383 230.389 65.5573C230.78 65.2762 231 64.8962 231 64.5C231 64.1038 230.78 63.7238 230.389 63.4427C229.997 63.1617 229.466 63.0026 228.911 63Z" fill="white"/>
<defs>
<filter id="filter0_d_972_3367" x="0" y="0" width="367" height="367" filterUnits="userSpaceOnUse" color-interpolation-filters="sRGB">
<feFlood flood-opacity="0" result="BackgroundImageFix"/>
<feColorMatrix in="SourceAlpha" type="matrix" values="0 0 0 0 0 0 0 0 0 0 0 0 0 0 0 0 0 0 127 0" result="hardAlpha"/>
<feOffset/>
<feGaussianBlur stdDeviation="3"/>
<feComposite in2="hardAlpha" operator="out"/>
<feColorMatrix type="matrix" values="0 0 0 0 0.734831 0 0 0 0 0.734831 0 0 0 0 0.734831 0 0 0 0.6 0"/>
<feBlend mode="normal" in2="BackgroundImageFix" result="effect1_dropShadow_972_3367"/>
<feBlend mode="normal" in="SourceGraphic" in2="effect1_dropShadow_972_3367" result="shape"/>
</filter>
</defs>
</svg>
