<svg width="371" height="371" viewBox="0 0 371 371" fill="none" xmlns="http://www.w3.org/2000/svg">
<g filter="url(#filter0_d_992_2888)">
<rect x="8" y="8" width="355" height="355" rx="177.5" fill="#F4F4F4"/>
</g>
<path d="M98.3062 107.2C95.5112 97.1131 118.055 88.4634 123.975 96.5864C124.798 95.4316 127.84 94.7301 129.236 95.0843C130.632 95.4386 131.806 96.3243 132.951 97.1816C134.526 98.379 136.158 99.6189 137.124 101.341C138.097 103.055 138.248 105.393 136.938 106.881C135.9 108.064 132.836 108.83 131.276 109.141C130.188 109.361 129.272 109.538 128.484 109.666C127.783 108.653 127.425 107.398 127.554 106.173C126.494 106.867 125.779 108.057 125.664 109.319C125.643 109.581 134.461 141.698 134.461 141.698C133.552 142.229 132.428 142.725 131.133 143.179C128.935 139.898 127.131 136.03 125.943 131.984C125.671 134.485 125.714 137.199 126.043 139.955C126.215 141.422 126.473 142.895 126.802 144.369C116.323 146.608 100.561 145.871 93.7037 136.349C93.7024 136.309 93.7013 136.27 93.7002 136.23C93.6511 134.449 91.1951 134.006 90.5379 135.665C90.3715 136.085 90.2184 136.449 90.0817 136.738C88.0847 129.667 90.6687 121.484 98.3062 107.2Z" fill="#2B2B2B"/>
<path d="M240.749 187.189C238.27 190.1 233.876 190.47 230.935 188.016C230.65 187.778 230.385 187.518 230.142 187.238L197.048 197.613L191.898 189.258L231.296 177.22C234.386 174.963 238.741 175.613 241.021 178.673C242.929 181.233 242.817 184.753 240.749 187.189Z" fill="#FFB6B6"/>
<path d="M123.551 161.263C123.551 161.263 138.206 144.946 144.59 151.877C150.974 158.808 170.891 189.181 170.891 189.181L217.384 179.471L221.88 191.616L169.089 208.549C165.121 209.822 160.772 208.502 158.206 205.246L123.551 161.263Z" fill="#1BD7BE"/>
<path d="M155.734 303.879H82.8839L82.8175 303.369L82.7749 303.028L82.1493 298.26L81.263 291.471L80.9218 288.861C80.8981 288.729 80.8743 288.602 80.8554 288.47C80.5568 286.771 80.3862 285.064 80.3246 283.361C80.2345 281.02 80.353 278.683 80.6327 276.376V276.363C80.7843 275.116 80.9786 273.881 81.2203 272.66C81.5236 271.089 81.8886 269.544 82.3104 268.033C82.7938 266.279 83.3436 264.572 83.9455 262.924C84.6375 260.996 85.3958 259.149 86.1778 257.403C86.2631 257.216 86.3484 257.029 86.429 256.846L86.4337 256.841C90.557 247.813 95.2396 241.645 95.2396 241.645H148.312C148.312 241.645 150.767 251.32 151.985 259.31C152.179 260.575 152.34 261.792 152.459 262.924C152.672 265.015 152.734 266.811 152.549 268.033C152.435 268.79 152.227 269.327 151.904 269.574C148.985 271.813 152.326 276.563 152.326 276.563C152.326 276.563 154.829 279.999 152.648 281.931C152.217 282.314 151.971 282.808 151.852 283.361C151.663 284.277 151.828 285.341 152.089 286.282C152.35 287.227 152.71 288.048 152.909 288.47C152.999 288.657 153.056 288.763 153.056 288.763L153.426 291.39L153.786 293.918L154.397 298.26L154.582 299.027L155.535 303.028L155.615 303.369L155.734 303.879Z" fill="#2B2B2B"/>
<path d="M118.664 138.939L96.4383 140.899L92.3419 153.517L87.8778 154.156C80.2493 155.25 75.7092 163.169 78.6732 170.212L82.6012 179.546C82.6012 179.546 76.8316 197.173 83.9176 204.58L86.933 237.201L80.131 258.705L159.642 261.246L146.098 234.272L145.696 217.523C145.696 217.523 154.351 187.25 146.327 177.621L143.197 150.233L126.886 147.812L118.664 138.939Z" fill="#1BD7BE"/>
<path d="M133.71 122.751C136 112.973 129.849 103.209 119.971 100.942C110.093 98.6752 100.228 104.764 97.9379 114.542C95.6476 124.32 101.799 134.084 111.677 136.351C121.555 138.618 131.42 132.529 133.71 122.751Z" fill="#FFB6B6"/>
<path d="M88.2847 108.618C85.4897 98.5311 108.033 89.8813 113.953 98.0044C114.776 96.8495 117.819 96.1481 119.214 96.5023C120.61 96.8566 121.784 97.7422 122.929 98.5996C124.504 99.797 126.136 101.037 127.102 102.759C128.076 104.473 128.226 106.811 126.916 108.299C125.878 109.482 122.815 110.248 121.254 110.559C120.166 110.779 119.25 110.956 118.463 111.084C117.761 110.071 117.403 108.816 117.532 107.591C116.473 108.285 115.757 109.475 115.643 110.737C115.621 110.999 124.44 143.116 124.44 143.116C123.531 143.647 122.407 144.143 121.111 144.597C118.914 141.316 117.11 137.448 115.922 133.402C115.65 135.903 115.693 138.617 116.022 141.373C116.194 142.84 116.451 144.313 116.781 145.787C106.301 148.026 90.5395 147.289 83.6822 137.767C83.681 137.727 83.6798 137.688 83.6787 137.648C83.6297 135.867 81.1736 135.424 80.5164 137.083C80.35 137.503 80.1969 137.867 80.0602 138.156C78.0632 131.085 80.6472 122.902 88.2847 108.618Z" fill="#2B2B2B"/>
<path d="M270.607 116.288H207.686C206.235 116.288 205.055 115.123 205.055 113.692C205.055 112.261 206.235 111.098 207.686 111.098H270.607C272.058 111.098 273.238 112.261 273.238 113.692C273.238 115.123 272.058 116.288 270.607 116.288Z" fill="#1BD7BE"/>
<path d="M270.607 125.327H207.686C206.235 125.327 205.055 124.162 205.055 122.732C205.055 121.301 206.235 120.137 207.686 120.137H270.607C272.058 120.137 273.238 121.301 273.238 122.732C273.238 124.162 272.058 125.327 270.607 125.327Z" fill="#1BD7BE"/>
<path d="M270.607 134.532H207.686C206.235 134.532 205.055 133.368 205.055 131.937C205.055 130.506 206.235 129.342 207.686 129.342H270.607C272.058 129.342 273.238 130.506 273.238 131.937C273.238 133.368 272.058 134.532 270.607 134.532Z" fill="#1BD7BE"/>
<path d="M270.607 143.739H207.686C206.235 143.739 205.055 142.575 205.055 141.144C205.055 139.713 206.235 138.549 207.686 138.549H270.607C272.058 138.549 273.238 139.713 273.238 141.144C273.238 142.575 272.058 143.739 270.607 143.739Z" fill="#1BD7BE"/>
<path d="M325.378 135.362H286.585C285.691 135.362 284.963 134.644 284.963 133.762C284.963 132.88 285.691 132.162 286.585 132.162H325.378C326.272 132.162 327 132.88 327 133.762C327 134.644 326.272 135.362 325.378 135.362Z" fill="white"/>
<path d="M305.177 167.618C305.322 167.971 305.823 167.971 305.968 167.617C306.979 165.149 308.419 162.386 309.985 160.273C310.236 159.935 309.89 159.483 309.492 159.626L306.134 160.828L306.134 140.256L305.011 140.256L305.011 160.828L301.652 159.626C301.253 159.483 300.908 159.935 301.158 160.273C302.725 162.385 304.165 165.149 305.177 167.618Z" fill="white"/>
<path d="M305.988 187.732C310.643 187.732 314.417 183.997 314.417 179.389C314.417 174.781 310.643 171.045 305.988 171.045C301.333 171.045 297.559 174.781 297.559 179.389C297.559 183.997 301.333 187.732 305.988 187.732Z" fill="white"/>
<path d="M201.005 88.0827H162.212C161.318 88.0827 160.59 87.3648 160.59 86.4826C160.59 85.6003 161.318 84.8828 162.212 84.8828H201.005C201.899 84.8828 202.627 85.6003 202.627 86.4826C202.627 87.3648 201.899 88.0827 201.005 88.0827Z" fill="white"/>
<path d="M180.804 120.34C180.949 120.694 181.45 120.694 181.595 120.34C182.606 117.872 184.046 115.108 185.612 112.996C185.863 112.658 185.517 112.206 185.119 112.349L181.761 113.551L181.761 92.9787L180.637 92.9787L180.637 113.551L177.279 112.348C176.88 112.206 176.535 112.658 176.785 112.996C178.352 115.108 179.792 117.872 180.804 120.34Z" fill="white"/>
<path d="M181.615 140.455C186.27 140.455 190.044 136.719 190.044 132.111C190.044 127.503 186.27 123.768 181.615 123.768C176.96 123.768 173.186 127.503 173.186 132.111C173.186 136.719 176.96 140.455 181.615 140.455Z" fill="white"/>
<path d="M83.8854 293.785C85.8744 290.526 84.8179 286.288 81.5256 284.319C81.2067 284.129 80.8728 283.963 80.5272 283.826L79.8291 249.471L70.1816 247.326L71.3122 288.123C70.1448 291.746 72.165 295.619 75.8244 296.774C78.8865 297.741 82.219 296.505 83.8854 293.785Z" fill="#FFB6B6"/>
<path d="M90.5973 158.243C90.5973 158.243 78.7747 155.434 74.9915 163.392C71.2083 171.349 70.8863 205.977 70.8863 205.977L68.8438 276.203L83.8402 275.549L95.7993 189.137L90.5973 158.243Z" fill="#1BD7BE"/>
<path d="M85.2922 304.148C85.5583 304.478 85.9626 304.669 86.3894 304.667H163.161C163.941 304.666 164.572 304.039 164.571 303.267C164.571 303.171 164.561 303.076 164.541 302.982L163.35 297.379C163.249 296.915 162.918 296.532 162.47 296.363C162.31 296.301 162.14 296.269 161.969 296.27H87.5764C87.4048 296.269 87.2348 296.301 87.0751 296.363C86.6269 296.532 86.2958 296.915 86.1955 297.379L85.0038 302.982C84.9179 303.394 85.0238 303.822 85.2922 304.148Z" fill="#BBBBBB"/>
<path d="M55.9004 178.716V266.372C55.9023 268.698 57.8067 270.583 60.1565 270.585H191.387C193.737 270.583 195.642 268.698 195.643 266.372V178.716C195.638 176.392 193.735 174.511 191.387 174.508H60.1565C57.809 174.511 55.906 176.392 55.9004 178.716Z" fill="#ECECEC"/>
<path d="M142.182 251.841C142.026 251.789 141.861 251.766 141.695 251.766H110.995C110.091 251.766 109.354 252.491 109.354 253.385V301.393H143.332V253.385C143.332 252.678 142.868 252.051 142.182 251.841ZM129.868 275.451C129.859 277.436 128.227 279.037 126.222 279.028C124.231 279.014 122.623 277.422 122.614 275.451V269.881C122.633 267.901 124.274 266.309 126.274 266.328C128.251 266.347 129.849 267.929 129.868 269.881V275.451Z" fill="#BBBBBB"/>
<defs>
<filter id="filter0_d_992_2888" x="0" y="0" width="371" height="371" filterUnits="userSpaceOnUse" color-interpolation-filters="sRGB">
<feFlood flood-opacity="0" result="BackgroundImageFix"/>
<feColorMatrix in="SourceAlpha" type="matrix" values="0 0 0 0 0 0 0 0 0 0 0 0 0 0 0 0 0 0 127 0" result="hardAlpha"/>
<feOffset/>
<feGaussianBlur stdDeviation="4"/>
<feComposite in2="hardAlpha" operator="out"/>
<feColorMatrix type="matrix" values="0 0 0 0 0 0 0 0 0 0 0 0 0 0 0 0 0 0 0.15 0"/>
<feBlend mode="normal" in2="BackgroundImageFix" result="effect1_dropShadow_992_2888"/>
<feBlend mode="normal" in="SourceGraphic" in2="effect1_dropShadow_992_2888" result="shape"/>
</filter>
</defs>
</svg>
