<svg width="355" height="355" viewBox="0 0 355 355" fill="none" xmlns="http://www.w3.org/2000/svg">
<path d="M-8355 -8783C-8355 -8784.1 -8354.1 -8785 -8353 -8785H5044C5045.1 -8785 5046 -8784.1 5046 -8783V8438C5046 8439.11 5045.1 8440 5044 8440H-8353C-8354.1 8440 -8355 8439.11 -8355 8438V-8783Z" fill="#C9C9C9"/>
<path d="M-8353 -8784H5044V-8786H-8353V-8784ZM5045 -8783V8438H5047V-8783H5045ZM5044 8439H-8353V8441H5044V8439ZM-8354 8438V-8783H-8356V8438H-8354ZM-8353 8439C-8353.55 8439 -8354 8438.55 -8354 8438H-8356C-8356 8439.66 -8354.66 8441 -8353 8441V8439ZM5045 8438C5045 8438.55 5044.55 8439 5044 8439V8441C5045.66 8441 5047 8439.66 5047 8438H5045ZM5044 -8784C5044.55 -8784 5045 -8783.55 5045 -8783H5047C5047 -8784.66 5045.66 -8786 5044 -8786V-8784ZM-8353 -8786C-8354.66 -8786 -8356 -8784.66 -8356 -8783H-8354C-8354 -8783.55 -8353.55 -8784 -8353 -8784V-8786Z" fill="black" fill-opacity="0.1"/>
<rect x="-252" y="-105" width="938" height="659" fill="#F8F8F8"/>
<g filter="url(#filter0_d_803_2893)">
<rect width="355" height="355" rx="177.5" fill="#F4F4F4"/>
</g>
<g clip-path="url(#clip0_803_2893)">
<path d="M93.3062 102.2C90.5112 92.1131 113.055 83.4634 118.975 91.5864C119.798 90.4316 122.84 89.7301 124.236 90.0843C125.632 90.4386 126.806 91.3243 127.951 92.1816C129.526 93.379 131.158 94.6189 132.124 96.3406C133.097 98.0552 133.248 100.393 131.938 101.881C130.9 103.064 127.836 103.83 126.276 104.141C125.188 104.361 124.272 104.538 123.484 104.666C122.783 103.653 122.425 102.398 122.554 101.173C121.494 101.867 120.779 103.057 120.664 104.319C120.643 104.581 129.461 136.698 129.461 136.698C128.552 137.229 127.428 137.725 126.133 138.179C123.935 134.898 122.131 131.03 120.943 126.984C120.671 129.485 120.714 132.199 121.043 134.955C121.215 136.422 121.473 137.895 121.802 139.369C111.323 141.608 95.561 140.871 88.7037 131.349C88.7024 131.309 88.7013 131.27 88.7002 131.23C88.6511 129.449 86.1951 129.006 85.5379 130.665C85.3715 131.085 85.2184 131.449 85.0817 131.738C83.0847 124.667 85.6687 116.484 93.3062 102.2Z" fill="#2B2B2B"/>
<path d="M235.749 182.189C233.27 185.1 228.876 185.47 225.935 183.016C225.65 182.778 225.385 182.518 225.142 182.238L192.048 192.613L186.898 184.258L226.296 172.22C229.386 169.963 233.741 170.613 236.021 173.673C237.929 176.233 237.817 179.753 235.749 182.189Z" fill="#FFB6B6"/>
<path d="M118.551 156.263C118.551 156.263 133.206 139.946 139.59 146.877C145.974 153.808 165.891 184.181 165.891 184.181L212.384 174.471L216.88 186.616L164.089 203.549C160.121 204.822 155.772 203.502 153.206 200.246L118.551 156.263Z" fill="#1BD7BE"/>
<path d="M150.732 298.879H77.8819L77.8156 298.369L77.7729 298.028L77.1473 293.26L76.261 286.471L75.9198 283.861C75.8961 283.729 75.8724 283.602 75.8534 283.47C75.5549 281.771 75.3842 280.064 75.3226 278.361C75.2326 276.02 75.3511 273.683 75.6307 271.376V271.363C75.7823 270.116 75.9767 268.881 76.2184 267.66C76.5217 266.089 76.8866 264.544 77.3085 263.033C77.7919 261.279 78.3417 259.572 78.9436 257.924C79.6355 255.996 80.3938 254.149 81.1758 252.403C81.2611 252.216 81.3465 252.029 81.427 251.846L81.4318 251.841C85.5551 242.813 90.2376 236.645 90.2376 236.645H143.31C143.31 236.645 145.765 246.32 146.983 254.31C147.177 255.575 147.338 256.792 147.457 257.924C147.67 260.015 147.732 261.811 147.547 263.033C147.433 263.79 147.225 264.327 146.902 264.574C143.983 266.813 147.324 271.563 147.324 271.563C147.324 271.563 149.827 274.999 147.646 276.931C147.215 277.314 146.969 277.808 146.85 278.361C146.661 279.277 146.827 280.341 147.087 281.282C147.348 282.227 147.708 283.048 147.907 283.47C147.997 283.657 148.054 283.763 148.054 283.763L148.424 286.39L148.784 288.918L149.395 293.26L149.58 294.027L150.533 298.028L150.613 298.369L150.732 298.879Z" fill="#2B2B2B"/>
<path d="M113.664 133.939L91.4383 135.899L87.3419 148.517L82.8778 149.156C75.2493 150.25 70.7092 158.169 73.6732 165.212L77.6012 174.546C77.6012 174.546 71.8316 192.173 78.9176 199.58L81.933 232.201L75.131 253.705L154.642 256.246L141.098 229.272L140.696 212.523C140.696 212.523 149.351 182.251 141.327 172.621L138.197 145.233L121.886 142.812L113.664 133.939Z" fill="#1BD7BE"/>
<path d="M128.708 117.751C130.998 107.973 124.847 98.2091 114.969 95.9422C105.091 93.6752 95.2262 99.7639 92.9359 109.542C90.6457 119.32 96.797 129.084 106.675 131.351C116.553 133.618 126.418 127.529 128.708 117.751Z" fill="#FFB6B6"/>
<path d="M83.2867 103.618C80.4916 93.5311 103.035 84.8813 108.955 93.0044C109.778 91.8495 112.821 91.1481 114.216 91.5023C115.612 91.8566 116.786 92.7422 117.931 93.5996C119.506 94.797 121.138 96.0369 122.104 97.7586C123.078 99.4732 123.228 101.811 121.918 103.299C120.88 104.482 117.817 105.248 116.256 105.559C115.168 105.779 114.252 105.956 113.465 106.084C112.763 105.071 112.405 103.816 112.534 102.591C111.475 103.285 110.759 104.475 110.645 105.737C110.623 105.999 119.442 138.116 119.442 138.116C118.533 138.647 117.409 139.143 116.113 139.597C113.916 136.316 112.112 132.448 110.924 128.402C110.652 130.903 110.695 133.617 111.024 136.373C111.196 137.84 111.453 139.313 111.783 140.787C101.303 143.026 85.5415 142.289 78.6841 132.767C78.6829 132.727 78.6818 132.688 78.6807 132.648C78.6316 130.867 76.1755 130.424 75.5183 132.083C75.3519 132.503 75.1988 132.867 75.0622 133.156C73.0651 126.085 75.6491 117.902 83.2867 103.618Z" fill="#2B2B2B"/>
<path d="M265.607 111.288H202.686C201.235 111.288 200.055 110.123 200.055 108.692C200.055 107.261 201.235 106.098 202.686 106.098H265.607C267.058 106.098 268.238 107.261 268.238 108.692C268.238 110.123 267.058 111.288 265.607 111.288Z" fill="#1BD7BE"/>
<path d="M265.607 120.327H202.686C201.235 120.327 200.055 119.162 200.055 117.732C200.055 116.301 201.235 115.137 202.686 115.137H265.607C267.058 115.137 268.238 116.301 268.238 117.732C268.238 119.162 267.058 120.327 265.607 120.327Z" fill="#1BD7BE"/>
<path d="M265.607 129.532H202.686C201.235 129.532 200.055 128.368 200.055 126.937C200.055 125.506 201.235 124.342 202.686 124.342H265.607C267.058 124.342 268.238 125.506 268.238 126.937C268.238 128.368 267.058 129.532 265.607 129.532Z" fill="#1BD7BE"/>
<path d="M265.607 138.739H202.686C201.235 138.739 200.055 137.575 200.055 136.144C200.055 134.713 201.235 133.549 202.686 133.549H265.607C267.058 133.549 268.238 134.713 268.238 136.144C268.238 137.575 267.058 138.739 265.607 138.739Z" fill="#1BD7BE"/>
<path d="M320.38 130.362H281.587C280.693 130.362 279.965 129.644 279.965 128.762C279.965 127.88 280.693 127.162 281.587 127.162H320.38C321.274 127.162 322.002 127.88 322.002 128.762C322.002 129.644 321.274 130.362 320.38 130.362Z" fill="white"/>
<path d="M300.177 162.618C300.322 162.971 300.823 162.971 300.968 162.617C301.979 160.149 303.419 157.386 304.985 155.273C305.236 154.935 304.89 154.483 304.492 154.626L301.134 155.828L301.134 135.256L300.011 135.256L300.011 155.828L296.652 154.626C296.253 154.483 295.908 154.935 296.158 155.273C297.725 157.385 299.165 160.149 300.177 162.618Z" fill="white"/>
<path d="M300.988 182.732C305.643 182.732 309.417 178.997 309.417 174.389C309.417 169.781 305.643 166.045 300.988 166.045C296.333 166.045 292.559 169.781 292.559 174.389C292.559 178.997 296.333 182.732 300.988 182.732Z" fill="white"/>
<path d="M196.005 83.0827H157.212C156.318 83.0827 155.59 82.3648 155.59 81.4826C155.59 80.6003 156.318 79.8828 157.212 79.8828H196.005C196.899 79.8828 197.627 80.6003 197.627 81.4826C197.627 82.3648 196.899 83.0827 196.005 83.0827Z" fill="white"/>
<path d="M175.802 115.34C175.947 115.694 176.448 115.694 176.593 115.34C177.604 112.872 179.044 110.108 180.61 107.996C180.861 107.658 180.515 107.206 180.117 107.349L176.759 108.551L176.759 87.9787L175.636 87.9787L175.636 108.551L172.277 107.348C171.878 107.206 171.533 107.658 171.783 107.996C173.35 110.108 174.79 112.872 175.802 115.34Z" fill="white"/>
<path d="M176.613 135.455C181.268 135.455 185.042 131.719 185.042 127.111C185.042 122.503 181.268 118.768 176.613 118.768C171.958 118.768 168.184 122.503 168.184 127.111C168.184 131.719 171.958 135.455 176.613 135.455Z" fill="white"/>
<path d="M78.8873 288.785C80.8764 285.526 79.8199 281.288 76.5276 279.319C76.2087 279.129 75.8748 278.963 75.5292 278.826L74.831 244.471L65.1836 242.326L66.3142 283.123C65.1468 286.746 67.167 290.619 70.8264 291.774C73.8884 292.741 77.2209 291.505 78.8873 288.785Z" fill="#FFB6B6"/>
<path d="M85.5973 153.243C85.5973 153.243 73.7747 150.434 69.9915 158.392C66.2083 166.349 65.8863 200.977 65.8863 200.977L63.8438 271.203L78.8402 270.549L90.7993 184.137L85.5973 153.243Z" fill="#1BD7BE"/>
<path d="M80.2903 299.148C80.5564 299.478 80.9606 299.669 81.3874 299.667H158.159C158.939 299.666 159.57 299.039 159.57 298.267C159.569 298.171 159.559 298.076 159.539 297.982L158.348 292.379C158.247 291.915 157.916 291.532 157.468 291.363C157.308 291.301 157.138 291.269 156.967 291.27H82.5744C82.4029 291.269 82.2328 291.301 82.0731 291.363C81.625 291.532 81.2939 291.915 81.1935 292.379L80.0018 297.982C79.916 298.394 80.0219 298.822 80.2903 299.148Z" fill="#BBBBBB"/>
<path d="M50.8984 173.716V261.372C50.9003 263.698 52.8047 265.583 55.1546 265.585H186.385C188.735 265.583 190.64 263.698 190.641 261.372V173.716C190.636 171.392 188.733 169.511 186.385 169.508H55.1546C52.8071 169.511 50.904 171.392 50.8984 173.716Z" fill="#ECECEC"/>
<path d="M137.181 246.841C137.024 246.789 136.859 246.766 136.693 246.766H105.993C105.089 246.766 104.352 247.491 104.352 248.385V296.393H138.33V248.385C138.33 247.678 137.866 247.051 137.181 246.841ZM124.866 270.451C124.857 272.436 123.225 274.037 121.22 274.028C119.229 274.014 117.621 272.422 117.612 270.451V264.881C117.631 262.901 119.272 261.309 121.272 261.328C123.249 261.347 124.847 262.929 124.866 264.881V270.451Z" fill="#BBBBBB"/>
</g>
<defs>
<filter id="filter0_d_803_2893" x="-8" y="-8" width="371" height="371" filterUnits="userSpaceOnUse" color-interpolation-filters="sRGB">
<feFlood flood-opacity="0" result="BackgroundImageFix"/>
<feColorMatrix in="SourceAlpha" type="matrix" values="0 0 0 0 0 0 0 0 0 0 0 0 0 0 0 0 0 0 127 0" result="hardAlpha"/>
<feOffset/>
<feGaussianBlur stdDeviation="4"/>
<feComposite in2="hardAlpha" operator="out"/>
<feColorMatrix type="matrix" values="0 0 0 0 0 0 0 0 0 0 0 0 0 0 0 0 0 0 0.15 0"/>
<feBlend mode="normal" in2="BackgroundImageFix" result="effect1_dropShadow_803_2893"/>
<feBlend mode="normal" in="SourceGraphic" in2="effect1_dropShadow_803_2893" result="shape"/>
</filter>
<clipPath id="clip0_803_2893">
<rect width="367" height="252" fill="white" transform="translate(-45 53)"/>
</clipPath>
</defs>
</svg>
