<svg width="371" height="371" viewBox="0 0 371 371" fill="none" xmlns="http://www.w3.org/2000/svg">
<g filter="url(#filter0_d_972_3245)">
<rect x="8" y="8" width="355" height="355" rx="177.5" fill="#F4F4F4"/>
</g>
<path d="M278.666 129.739C276.694 129.715 274.805 129.648 272.998 129.539C274.873 129.828 276.775 129.895 278.666 129.739Z" fill="#F2F2F2"/>
<path d="M352.754 245H18L19.2539 247.625L351.254 248L352.754 245Z" fill="#2B2B2B"/>
<path d="M133.737 132.785C133.391 131.574 138.228 142.676 137.078 142.81C131.836 143.411 120.221 146.122 116.57 147.583C116.405 147.564 116.241 147.545 116.081 147.521C115.69 147.478 115.308 147.416 114.931 147.344C106.43 145.736 99.9983 138.752 99.8242 130.322C99.8145 130.203 99.8145 130.079 99.8145 129.959C99.8134 129.377 99.8441 128.796 99.9064 128.217C99.9864 127.427 100.124 126.644 100.317 125.873L100.298 125.869C96.9132 122.69 98.3397 116.794 102.653 114.307C104.527 113.23 106.606 112.555 108.756 112.326C109.339 112.263 109.924 112.231 110.511 112.231H116.019C117.158 111.985 118.314 111.818 119.476 111.73H119.486C130.574 110.885 139.317 117.644 138.499 125.869C138.494 125.878 138.485 125.888 138.48 125.897C138.243 126.251 138.035 126.585 137.851 126.905C137.672 127.205 137.523 127.492 137.392 127.764C136.381 129.864 138.979 132.507 137.257 133C134.966 133.656 143.282 155.221 134.214 155.221C138.625 156.475 134.691 136.127 133.737 132.785Z" fill="#2B2B2B"/>
<path d="M184.333 341.223L191.484 341.163L194.649 312.934L184.096 313.022L184.333 341.223Z" fill="#FFB6B6"/>
<path d="M207.238 352.597C207.244 353.445 206.914 354.261 206.32 354.865C205.725 355.47 204.916 355.814 204.068 355.823L189.85 355.941L187.361 350.895L186.447 355.967L181.082 356.016L182.437 337.927L184.303 337.803L191.916 337.278L194.372 337.113L194.415 342.231L205.837 349.979C206.264 350.27 206.615 350.66 206.86 351.116C207.104 351.571 207.233 352.08 207.238 352.597Z" fill="#2B2B2B"/>
<path d="M193.401 327.066C190.557 326.722 183.379 326.111 183.379 326.111C183.379 326.111 179.99 319.037 180.539 316.836C181.078 314.626 182.424 314.177 181.174 313.022C178.128 301.766 178.615 283.484 178.615 283.484C178.615 283.484 162.226 275.546 145.631 266.357C129.408 257.368 112.99 247.187 111.505 242.055C110.525 238.385 109.868 234.636 109.539 230.852C109.291 228.37 109.138 225.935 109.042 223.754C108.818 218.761 108.909 215.071 108.909 215.071L129.589 214.727L143.287 214.412H144.719V216.799L148.318 222.918C148.318 222.918 154.537 230.15 153.806 230.823C152.923 231.64 153.191 232.365 156.326 232.957C157.218 233.113 158.126 233.15 159.028 233.067C164.092 232.68 166.211 235.578 166.335 236.212C167.184 240.695 175.704 250.433 183.684 258.743H183.689C191.053 266.419 197.955 272.873 197.955 272.873L198.346 281.107L200.184 319.605C200.184 319.605 196.738 317.676 199.816 321.834C202.895 325.996 196.246 327.404 193.401 327.066Z" fill="#2B2B2B"/>
<path d="M270.982 237.55L273.901 231.02L249.549 216.4L245.24 226.037L270.982 237.55Z" fill="#FFB6B6"/>
<path d="M290.852 221.447C291.625 221.793 292.23 222.433 292.532 223.225C292.835 224.017 292.811 224.897 292.466 225.671L286.661 238.652L281.037 238.817L285.269 241.758L283.082 246.658L267.197 237.902L267.861 236.153L270.55 229.01L271.422 226.708L276.093 228.797L287.889 221.632C288.331 221.364 288.831 221.207 289.347 221.174C289.863 221.142 290.38 221.235 290.852 221.447Z" fill="#2B2B2B"/>
<path d="M258.461 221.746C258.444 221.783 258.424 221.817 258.408 221.847C257.077 224.29 254.893 229.941 254.757 230.29C254.754 230.296 254.752 230.303 254.751 230.31C254.751 230.31 247.546 229.939 245.705 228.617C243.86 227.286 246.652 229.391 242.398 226.607C240.198 225.16 232.664 222.901 225.915 221.055C219.637 219.338 214.042 217.987 214.042 217.987C214.042 217.987 209.097 222.489 201.932 228.709L201.929 228.713C195.275 234.478 186.699 241.727 178.389 248.218C160.597 253.452 141.818 257.987 137.123 255.439C133.823 253.559 130.694 251.394 127.77 248.97L132.604 236.297L145.388 222.907L158.845 217.438L164.109 215.297L171.481 212.306L211.391 196.088L255.588 211.399C255.588 211.399 252.51 213.886 257.52 212.574C262.462 211.283 259.851 219.127 258.461 221.746Z" fill="#2B2B2B"/>
<path d="M118.944 148.061H133.263L135.517 153.037L145.106 157.31C146.353 157.867 147.452 158.709 148.314 159.768C149.176 160.828 149.777 162.075 150.068 163.409C153.521 179.195 149.154 182.475 149.013 187.68C148.536 205.342 146.076 208.855 146.352 213.215C146.434 214.52 147.23 219.679 149.792 219.193C152.354 218.708 150.973 220.747 151.579 221.54C152.103 222.225 154.858 221.316 153.129 223.592C151.399 225.868 158.793 232.073 154.263 232.073C145.672 232.073 128.49 236.369 121.808 236.369C115.126 236.369 109.963 238.351 107.012 238.279C105.214 238.235 105.777 229.85 106.495 222.588C106.658 220.943 109.815 220.986 106.982 217.938C104.149 214.889 107.484 213.304 107.49 212.502C107.496 211.65 109.096 209.502 107.1 205.99C105.103 202.478 106.943 203.931 106.857 202.828C106.189 194.329 105.231 183.492 105.231 183.492L101.01 171.611C99.9314 168.575 100.074 165.237 101.408 162.304C102.742 159.37 105.163 157.069 108.161 155.886L113.112 153.933L118.944 148.061Z" fill="#1BD7BE"/>
<path d="M219.5 143.678C219.181 144.272 218.738 144.789 218.2 145.195C217.662 145.6 217.043 145.884 216.385 146.026C215.726 146.169 215.045 146.167 214.388 146.02C213.73 145.873 213.113 145.585 212.577 145.176L192.407 156.597L187.877 151.794L211.933 138.404C212.688 137.555 213.729 137.011 214.858 136.878C215.987 136.744 217.125 137.03 218.058 137.68C218.991 138.33 219.653 139.299 219.918 140.405C220.184 141.51 220.035 142.675 219.5 143.678Z" fill="#FFB6B6"/>
<path d="M128.684 170.637L128.377 174.315L168.532 173.799L208.503 151.325L202.659 142.33L167.528 157.103L142.558 157.61C139.044 157.681 135.681 159.052 133.119 161.458C130.557 163.864 128.977 167.134 128.684 170.637Z" fill="#1BD7BE"/>
<path d="M123.843 145.436C131.045 145.436 136.883 139.597 136.883 132.394C136.883 125.191 131.045 119.352 123.843 119.352C116.641 119.352 110.803 125.191 110.803 132.394C110.803 139.597 116.641 145.436 123.843 145.436Z" fill="#FFB6B6"/>
<path d="M138.499 126.58C138.282 126.695 138.069 126.8 137.851 126.905C137.624 127.015 137.397 127.124 137.17 127.225C132.803 129.206 129.249 129.425 127.092 126.58C127.034 125.083 126.698 123.61 126.101 122.236C126.206 123.772 125.802 125.299 124.95 126.58H120.608C116.135 129.549 113.838 129.86 116.942 139.607C117.808 142.323 121.249 158.128 119.896 160.472C119.504 160.429 115.308 147.416 114.931 147.345C106.43 145.736 99.9983 138.752 99.8242 130.323C99.8339 129.893 99.8629 129.463 99.9064 129.043C100.466 128.201 101.082 127.398 101.749 126.637C101.745 124.384 102.263 122.161 103.262 120.141C104.526 117.582 106.496 115.438 108.939 113.964C110.396 113.258 111.914 112.687 113.475 112.26C113.514 112.25 113.548 112.241 113.586 112.231C114.065 112.102 114.553 111.983 115.042 111.883C116.051 111.67 117.071 111.515 118.098 111.42C118.17 111.415 118.243 111.41 118.311 111.41C118.721 111.411 119.123 111.522 119.476 111.73C119.481 111.73 119.481 111.735 119.486 111.735C119.738 111.882 119.958 112.079 120.134 112.312C120.443 112.706 120.61 113.192 120.608 113.692H125.443C125.622 113.692 125.801 113.697 125.98 113.706C129.207 113.816 132.277 115.127 134.589 117.382C136.901 119.637 138.289 122.674 138.48 125.898C138.495 126.127 138.499 126.351 138.499 126.58Z" fill="#2B2B2B"/>
<path d="M106.056 128.968C110.801 128.968 114.647 125.121 114.647 120.375C114.647 115.63 110.801 111.783 106.056 111.783C101.311 111.783 97.4648 115.63 97.4648 120.375C97.4648 125.121 101.311 128.968 106.056 128.968Z" fill="#2B2B2B"/>
<path d="M116.559 113.691C116.723 118.433 112.713 122.283 107.968 122.283C105.689 122.283 103.504 121.378 101.893 119.766C100.282 118.155 99.377 115.97 99.377 113.691C99.377 108.945 105.123 108.896 107.968 105.099C111.992 99.7261 116.338 107.295 116.559 113.691Z" fill="#2B2B2B"/>
<path d="M127.79 248.102C126.456 228.305 130.362 209.683 141.207 192.618C141.48 191.495 142.187 190.526 143.173 189.924C144.159 189.322 145.343 189.136 146.467 189.406L188.364 199.54C189.486 199.813 190.455 200.52 191.057 201.506C191.659 202.492 191.845 203.677 191.575 204.8L178.158 260.285C177.885 261.407 177.178 262.376 176.192 262.978C175.206 263.58 174.022 263.766 172.898 263.496L131.001 253.362C129.879 253.089 128.91 252.382 128.308 251.396C127.706 250.41 127.52 249.225 127.79 248.102Z" fill="#F2F2F2"/>
<path opacity="0.2" d="M136.001 252.306C134.878 252.034 133.91 251.327 133.308 250.34C132.706 249.354 132.52 248.17 132.79 247.046C131.456 227.249 135.361 208.627 146.207 191.562C146.39 190.826 146.764 190.151 147.291 189.606L146.467 189.406C145.343 189.136 144.159 189.322 143.173 189.924C142.187 190.526 141.48 191.495 141.207 192.618C130.362 209.683 126.456 228.305 127.79 248.102C127.52 249.225 127.706 250.41 128.308 251.396C128.91 252.382 129.879 253.089 131.001 253.362L172.898 263.496C173.643 263.674 174.422 263.651 175.155 263.431C175.888 263.21 176.55 262.8 177.074 262.241L136.001 252.306Z" fill="#2B2B2B"/>
<path d="M173.935 228.95L145.841 222.237C145.394 222.13 145.008 221.85 144.768 221.458C144.527 221.067 144.452 220.596 144.559 220.149C144.666 219.702 144.946 219.316 145.337 219.075C145.728 218.835 146.199 218.759 146.646 218.865L174.741 225.579C175.187 225.687 175.571 225.967 175.811 226.358C176.05 226.75 176.125 227.22 176.018 227.666C175.911 228.112 175.632 228.498 175.242 228.739C174.852 228.979 174.382 229.056 173.935 228.95Z" fill="white"/>
<path d="M154.227 214.467L148.046 212.99C147.6 212.884 147.213 212.605 146.972 212.215C146.73 211.824 146.654 211.353 146.759 210.906C146.864 210.459 147.143 210.072 147.533 209.83C147.924 209.588 148.394 209.511 148.841 209.616L148.852 209.619L155.033 211.095C155.478 211.204 155.863 211.484 156.102 211.875C156.342 212.266 156.416 212.737 156.31 213.183C156.203 213.629 155.924 214.015 155.534 214.255C155.144 214.496 154.674 214.572 154.227 214.467Z" fill="white"/>
<path d="M170.389 243.772L142.294 237.059C141.848 236.951 141.463 236.67 141.224 236.279C140.984 235.888 140.91 235.417 141.016 234.971C141.123 234.525 141.402 234.139 141.792 233.898C142.183 233.658 142.653 233.582 143.1 233.687L171.194 240.4C171.416 240.452 171.626 240.547 171.811 240.68C171.996 240.813 172.153 240.981 172.273 241.175C172.393 241.368 172.473 241.584 172.51 241.809C172.547 242.034 172.539 242.264 172.487 242.485C172.434 242.707 172.339 242.916 172.206 243.101C172.072 243.286 171.904 243.443 171.71 243.563C171.516 243.682 171.301 243.763 171.076 243.799C170.851 243.835 170.621 243.827 170.4 243.774L170.389 243.772Z" fill="white"/>
<path d="M172.166 236.363L144.071 229.65C143.624 229.544 143.237 229.264 142.996 228.873C142.755 228.482 142.679 228.01 142.785 227.563C142.892 227.116 143.171 226.729 143.562 226.488C143.954 226.247 144.425 226.171 144.872 226.277L144.876 226.278L172.971 232.992C173.417 233.1 173.802 233.38 174.041 233.771C174.281 234.163 174.355 234.633 174.249 235.079C174.142 235.525 173.863 235.911 173.473 236.152C173.082 236.393 172.612 236.469 172.166 236.363Z" fill="white"/>
<path d="M166.223 201.547C170.214 201.547 173.449 198.311 173.449 194.319C173.449 190.328 170.214 187.092 166.223 187.092C162.231 187.092 158.996 190.328 158.996 194.319C158.996 198.311 162.231 201.547 166.223 201.547Z" fill="#2B2B2B"/>
<path d="M129.787 252.242C129.197 251.917 128.686 251.466 128.287 250.923C127.889 250.38 127.613 249.757 127.479 249.097C127.345 248.437 127.356 247.755 127.511 247.1C127.666 246.445 127.962 245.831 128.378 245.301L117.219 224.982L122.079 220.514L135.156 244.743C135.996 245.509 136.526 246.557 136.645 247.688C136.764 248.818 136.464 249.954 135.802 250.878C135.14 251.802 134.162 252.452 133.054 252.703C131.945 252.955 130.783 252.791 129.787 252.242Z" fill="#FFB6B6"/>
<path d="M116.751 162.304L104.748 161.146C104.189 161.092 103.623 161.155 103.09 161.333C102.556 161.51 102.065 161.797 101.648 162.175C101.232 162.553 100.899 163.014 100.672 163.529C100.444 164.043 100.326 164.6 100.326 165.162V200.883L122.281 241.145L131.349 235.417L117.031 200.093L116.751 162.304Z" fill="#1BD7BE"/>
<path d="M211.501 159.404C214.284 139.758 221.951 122.344 236.087 107.887C236.585 106.845 237.477 106.043 238.566 105.658C239.655 105.273 240.853 105.335 241.896 105.832L280.797 124.401C281.839 124.9 282.64 125.792 283.026 126.881C283.411 127.97 283.349 129.168 282.852 130.211L258.267 181.728C257.768 182.77 256.877 183.572 255.788 183.957C254.699 184.343 253.501 184.28 252.458 183.784L213.557 165.214C212.515 164.715 211.713 163.823 211.328 162.734C210.943 161.645 211.005 160.447 211.501 159.404Z" fill="#F2F2F2"/>
<path opacity="0.2" d="M218.667 165.214C217.625 164.715 216.823 163.823 216.438 162.734C216.053 161.645 216.115 160.447 216.611 159.404C219.394 139.758 227.061 122.344 241.196 107.887C241.527 107.205 242.033 106.622 242.661 106.197L241.896 105.832C240.853 105.335 239.655 105.273 238.566 105.658C237.477 106.043 236.585 106.845 236.087 107.887C221.951 122.344 214.284 139.758 211.501 159.404C211.005 160.447 210.943 161.645 211.328 162.734C211.713 163.823 212.515 164.715 213.557 165.214L252.458 183.784C253.15 184.111 253.916 184.25 254.679 184.186C255.442 184.122 256.175 183.857 256.802 183.418L218.667 165.214Z" fill="#2B2B2B"/>
<path d="M260.609 150.195L234.507 137.823C234.091 137.626 233.771 137.273 233.616 136.84C233.462 136.407 233.486 135.93 233.683 135.515C233.879 135.099 234.233 134.779 234.666 134.624C235.099 134.47 235.576 134.494 235.991 134.69L262.094 147.062C262.508 147.26 262.826 147.614 262.979 148.046C263.133 148.478 263.109 148.954 262.912 149.368C262.716 149.783 262.363 150.102 261.932 150.257C261.5 150.412 261.025 150.39 260.609 150.195Z" fill="white"/>
<path d="M244.318 131.956L238.576 129.235C238.369 129.138 238.184 129.001 238.031 128.833C237.877 128.665 237.759 128.468 237.681 128.254C237.604 128.04 237.569 127.812 237.58 127.585C237.591 127.357 237.646 127.134 237.743 126.928C237.84 126.722 237.976 126.537 238.145 126.383C238.313 126.23 238.51 126.111 238.724 126.034C238.939 125.957 239.166 125.923 239.394 125.934C239.621 125.944 239.844 126 240.05 126.097L240.06 126.102L245.803 128.824C246.217 129.021 246.535 129.375 246.689 129.807C246.843 130.24 246.819 130.715 246.622 131.13C246.426 131.545 246.073 131.865 245.641 132.019C245.209 132.174 244.733 132.152 244.318 131.956Z" fill="white"/>
<path d="M254.081 163.968L227.979 151.596C227.565 151.399 227.246 151.045 227.092 150.613C226.939 150.18 226.963 149.705 227.159 149.29C227.356 148.875 227.708 148.555 228.14 148.401C228.572 148.246 229.048 148.268 229.463 148.464L255.566 160.835C255.772 160.932 255.957 161.069 256.11 161.237C256.263 161.405 256.382 161.602 256.459 161.816C256.536 162.03 256.57 162.258 256.56 162.485C256.549 162.712 256.494 162.935 256.397 163.141C256.3 163.347 256.164 163.532 255.996 163.686C255.827 163.839 255.631 163.958 255.416 164.035C255.202 164.112 254.975 164.146 254.748 164.136C254.52 164.125 254.297 164.07 254.091 163.973L254.081 163.968Z" fill="white"/>
<path d="M257.344 157.083L231.241 144.711C230.825 144.514 230.505 144.161 230.35 143.728C230.195 143.295 230.218 142.819 230.414 142.403C230.61 141.987 230.964 141.667 231.397 141.512C231.829 141.357 232.306 141.38 232.722 141.576L232.725 141.578L258.828 153.95C259.242 154.148 259.56 154.501 259.714 154.934C259.867 155.366 259.843 155.841 259.647 156.256C259.45 156.671 259.098 156.99 258.666 157.145C258.234 157.3 257.759 157.278 257.344 157.083Z" fill="white"/>
<path d="M260.215 121.947C264.206 121.947 267.441 118.711 267.441 114.72C267.441 110.728 264.206 107.492 260.215 107.492C256.224 107.492 252.988 110.728 252.988 114.72C252.988 118.711 256.224 121.947 260.215 121.947Z" fill="#2B2B2B"/>
<path d="M302.953 184.855C295.116 167.85 291.684 149.524 294.088 129.447C293.716 127.112 295.018 124.771 296.998 124.215L332.48 114.301C334.46 113.75 336.368 115.194 336.743 117.528L345.609 172.936C345.981 175.272 344.679 177.612 342.699 178.168L307.217 188.082C305.236 188.633 303.329 187.189 302.953 184.855Z" fill="#F2F2F2"/>
<path opacity="0.2" d="M310.671 184.884C308.691 185.435 306.783 183.991 306.407 181.657C298.57 164.652 295.138 146.326 297.542 126.249C297.428 125.504 297.481 124.742 297.696 124.02L296.998 124.215C295.018 124.77 293.716 127.111 294.088 129.447C291.684 149.524 295.116 167.85 302.953 184.854C303.329 187.189 305.236 188.632 307.217 188.082L342.699 178.167C343.375 177.941 343.982 177.546 344.464 177.021C344.946 176.496 345.287 175.858 345.455 175.165L310.671 184.884Z" fill="#2B2B2B"/>
<path d="M331.598 146.974L307.833 153.696C307.045 153.917 306.285 153.344 306.135 152.415C306.05 151.988 306.119 151.544 306.33 151.163C306.54 150.782 306.88 150.488 307.287 150.333L331.052 143.611C331.84 143.391 332.599 143.967 332.747 144.896C332.831 145.322 332.762 145.765 332.552 146.145C332.342 146.525 332.004 146.819 331.598 146.974Z" fill="white"/>
<path d="M311.56 142.997L306.331 144.476C305.544 144.702 304.782 144.133 304.629 143.205C304.542 142.777 304.609 142.332 304.82 141.95C305.03 141.567 305.369 141.272 305.776 141.116L305.785 141.113L311.013 139.635C311.801 139.415 312.56 139.99 312.709 140.919C312.793 141.346 312.724 141.788 312.514 142.168C312.304 142.549 311.966 142.842 311.56 142.997Z" fill="white"/>
<path d="M333.995 161.756L310.23 168.478C309.442 168.697 308.683 168.122 308.535 167.193C308.451 166.767 308.52 166.324 308.73 165.944C308.94 165.564 309.278 165.27 309.684 165.115L333.449 158.393C334.236 158.167 334.998 158.737 335.152 159.665C335.239 160.092 335.171 160.537 334.961 160.919C334.751 161.302 334.412 161.597 334.004 161.753L333.995 161.756Z" fill="white"/>
<path d="M332.795 154.367L309.03 161.088C308.242 161.312 307.481 160.741 307.329 159.813C307.243 159.385 307.311 158.941 307.522 158.558C307.733 158.176 308.072 157.882 308.48 157.726L308.483 157.725L332.248 151.004C333.036 150.784 333.795 151.359 333.944 152.288C334.028 152.715 333.959 153.157 333.749 153.537C333.539 153.918 333.201 154.211 332.795 154.367Z" fill="white"/>
<path d="M319.764 120.429C320.275 116.47 318.011 112.915 314.707 112.488C311.403 112.061 308.31 114.924 307.799 118.883C307.288 122.842 309.551 126.397 312.855 126.824C316.159 127.251 319.252 124.388 319.764 120.429Z" fill="#2B2B2B"/>
<path d="M133.333 82.3469C132.198 82.3469 130.97 82.219 129.893 82.6369C129.628 82.74 128.982 83.0076 129.408 83.331C130.775 84.3702 132.54 85.0431 133.998 85.962C134.543 86.3059 139.534 89.5453 136.941 90.5093C134.723 91.3343 129.583 91.2624 129.45 88.0233C129.275 83.7495 137.825 84.135 140.36 83.7971C140.912 83.7235 145.074 83.2892 143.146 81.7565C142.207 81.0105 140.695 80.782 139.6 81.3111C138.535 81.8258 138.3 83.0284 138.376 84.0871C138.551 86.5102 139.508 88.8729 139.991 91.2448C140.215 92.3466 140.984 94.7876 139.421 95.3778C138.202 95.8382 136.998 95.0919 136.372 94.083C135.297 92.3515 135.691 88.7434 138.545 89.4321C139.712 89.7137 144.788 94.3152 145.783 92.6432C146.516 91.4118 145.237 89.6547 144.412 88.8727C142.444 87.0086 139.699 86.0549 136.984 86.1174C135.424 86.1533 133.124 86.5123 132.025 87.7747C131.467 88.4146 132.413 87.9697 132.594 87.7954C134.705 85.7661 136.642 81.6726 135.454 78.7836C134.749 77.071 130.821 75.9231 130.241 78.2864C129.628 80.7893 131.135 82.9298 133.829 83.0409C135.066 83.092 136.759 82.6976 137.543 81.6529C138.074 80.9449 136.812 80.8973 136.446 80.9071C132.813 81.0035 129.65 83.6977 127.593 86.4281C126.445 87.9528 125.508 90.0298 126.285 91.9388C127.065 93.8572 129.37 94.6686 131.307 94.7356C132.962 94.7928 137.581 92.8779 135.295 90.6336C132.971 88.3514 129.809 92.0499 129.809 94.2902C129.809 97.606 133.153 99.1863 136.203 98.9825C137.836 98.8735 139.888 98.0422 140.487 96.3929C140.651 95.94 140.14 94.8372 139.727 95.585C139.393 96.1898 140.125 96.931 140.592 97.1802C142.495 98.1957 144.946 97.7695 146.712 96.683C148.82 95.3857 151.377 92.6439 150.953 89.95C150.683 88.2336 148.744 86.9593 147.303 86.2624C145.812 85.5419 143.634 85.4227 143.462 87.5261C143.397 88.323 143.944 88.6395 144.675 88.2512C146.018 87.538 146.495 85.9076 146.627 84.5222C146.923 81.433 144.688 80.3209 141.858 80.5031C140.275 80.605 140.636 81.4414 141.753 80.7206C143.51 79.5869 140.977 78.3845 139.959 78.2242C138.605 78.011 137.033 78.0722 135.76 78.6179C135.243 78.8392 134.887 79.2076 135.739 79.0944C136.238 79.0279 141.427 77.8092 139.875 76.4633C138.431 75.2112 136.357 76.7749 135.612 77.8721" stroke="#2B2B2B" stroke-width="0.8" stroke-linecap="round"/>
<defs>
<filter id="filter0_d_972_3245" x="0" y="0" width="371" height="371" filterUnits="userSpaceOnUse" color-interpolation-filters="sRGB">
<feFlood flood-opacity="0" result="BackgroundImageFix"/>
<feColorMatrix in="SourceAlpha" type="matrix" values="0 0 0 0 0 0 0 0 0 0 0 0 0 0 0 0 0 0 127 0" result="hardAlpha"/>
<feOffset/>
<feGaussianBlur stdDeviation="4"/>
<feComposite in2="hardAlpha" operator="out"/>
<feColorMatrix type="matrix" values="0 0 0 0 0 0 0 0 0 0 0 0 0 0 0 0 0 0 0.15 0"/>
<feBlend mode="normal" in2="BackgroundImageFix" result="effect1_dropShadow_972_3245"/>
<feBlend mode="normal" in="SourceGraphic" in2="effect1_dropShadow_972_3245" result="shape"/>
</filter>
</defs>
</svg>
