<svg width="367" height="367" viewBox="0 0 367 367" fill="none" xmlns="http://www.w3.org/2000/svg">
<g filter="url(#filter0_d_972_3245)">
<rect x="6" y="6" width="355" height="355" rx="177.5" fill="#F4F4F4"/>
</g>
<path d="M276.666 127.739C274.694 127.715 272.805 127.648 270.998 127.539C272.873 127.828 274.775 127.895 276.666 127.739Z" fill="#F2F2F2"/>
<path d="M350.754 243H16L17.2539 245.625L349.254 246L350.754 243Z" fill="#2B2B2B"/>
<path d="M131.737 130.785C131.391 129.574 136.228 140.676 135.078 140.81C129.836 141.411 118.221 144.122 114.57 145.583C114.405 145.564 114.241 145.545 114.081 145.521C113.69 145.478 113.308 145.416 112.931 145.344C104.43 143.736 97.9983 136.752 97.8242 128.322C97.8145 128.203 97.8145 128.079 97.8145 127.959C97.8134 127.377 97.8441 126.796 97.9064 126.217C97.9864 125.427 98.1238 124.644 98.3174 123.873L98.2981 123.869C94.9132 120.69 96.3397 114.794 100.653 112.307C102.527 111.23 104.606 110.555 106.756 110.326C107.339 110.263 107.924 110.231 108.511 110.231H114.019C115.158 109.985 116.314 109.818 117.476 109.73H117.486C128.574 108.885 137.317 115.644 136.499 123.869C136.494 123.878 136.485 123.888 136.48 123.897C136.243 124.251 136.035 124.585 135.851 124.905C135.672 125.205 135.523 125.492 135.392 125.764C134.381 127.864 136.979 130.507 135.257 131C132.966 131.656 141.282 153.221 132.214 153.221C136.625 154.475 132.691 134.127 131.737 130.785Z" fill="#2B2B2B"/>
<path d="M182.333 339.223L189.484 339.163L192.649 310.934L182.096 311.022L182.333 339.223Z" fill="#FFB6B6"/>
<path d="M205.238 350.597C205.244 351.445 204.914 352.261 204.32 352.865C203.725 353.47 202.916 353.814 202.068 353.823L187.85 353.941L185.361 348.895L184.447 353.967L179.082 354.016L180.437 335.927L182.303 335.803L189.916 335.278L192.372 335.113L192.415 340.231L203.837 347.979C204.264 348.27 204.615 348.66 204.86 349.116C205.104 349.571 205.233 350.08 205.238 350.597Z" fill="#2B2B2B"/>
<path d="M191.401 325.066C188.557 324.722 181.379 324.111 181.379 324.111C181.379 324.111 177.99 317.037 178.539 314.836C179.078 312.626 180.424 312.177 179.174 311.022C176.128 299.766 176.615 281.484 176.615 281.484C176.615 281.484 160.226 273.546 143.631 264.357C127.408 255.368 110.99 245.187 109.505 240.055C108.525 236.385 107.868 232.636 107.539 228.852C107.291 226.37 107.138 223.935 107.042 221.754C106.818 216.761 106.909 213.071 106.909 213.071L127.589 212.727L141.287 212.412H142.719V214.799L146.318 220.918C146.318 220.918 152.537 228.15 151.806 228.823C150.923 229.64 151.191 230.365 154.326 230.957C155.218 231.113 156.126 231.15 157.028 231.067C162.092 230.68 164.211 233.578 164.335 234.212C165.184 238.695 173.704 248.433 181.684 256.743H181.689C189.053 264.419 195.955 270.873 195.955 270.873L196.346 279.107L198.184 317.605C198.184 317.605 194.738 315.676 197.816 319.834C200.895 323.996 194.246 325.404 191.401 325.066Z" fill="#2B2B2B"/>
<path d="M268.982 235.55L271.901 229.02L247.549 214.4L243.24 224.037L268.982 235.55Z" fill="#FFB6B6"/>
<path d="M288.852 219.447C289.625 219.793 290.23 220.433 290.532 221.225C290.835 222.017 290.811 222.897 290.466 223.671L284.661 236.652L279.037 236.817L283.269 239.758L281.082 244.658L265.197 235.902L265.861 234.153L268.55 227.01L269.422 224.708L274.093 226.797L285.889 219.632C286.331 219.364 286.831 219.207 287.347 219.174C287.863 219.142 288.38 219.235 288.852 219.447Z" fill="#2B2B2B"/>
<path d="M256.461 219.746C256.444 219.783 256.424 219.817 256.408 219.847C255.077 222.29 252.893 227.941 252.757 228.29C252.754 228.296 252.752 228.303 252.751 228.31C252.751 228.31 245.546 227.939 243.705 226.617C241.86 225.286 244.652 227.391 240.398 224.607C238.198 223.16 230.664 220.901 223.915 219.055C217.637 217.338 212.042 215.987 212.042 215.987C212.042 215.987 207.097 220.489 199.932 226.709L199.929 226.713C193.275 232.478 184.699 239.727 176.389 246.218C158.597 251.452 139.818 255.987 135.123 253.439C131.823 251.559 128.694 249.394 125.77 246.97L130.604 234.297L143.388 220.907L156.845 215.438L162.109 213.297L169.481 210.306L209.391 194.088L253.588 209.399C253.588 209.399 250.51 211.886 255.52 210.574C260.462 209.283 257.851 217.127 256.461 219.746Z" fill="#2B2B2B"/>
<path d="M116.944 146.061H131.263L133.517 151.037L143.106 155.31C144.353 155.867 145.452 156.709 146.314 157.768C147.176 158.828 147.777 160.075 148.068 161.409C151.521 177.195 147.154 180.475 147.013 185.68C146.536 203.342 144.076 206.855 144.352 211.215C144.434 212.52 145.23 217.679 147.792 217.193C150.354 216.708 148.973 218.747 149.579 219.54C150.103 220.225 152.858 219.316 151.129 221.592C149.399 223.868 156.793 230.073 152.263 230.073C143.672 230.073 126.49 234.369 119.808 234.369C113.126 234.369 107.963 236.351 105.012 236.279C103.214 236.235 103.777 227.85 104.495 220.588C104.658 218.943 107.815 218.986 104.982 215.938C102.149 212.889 105.484 211.304 105.49 210.502C105.496 209.65 107.096 207.502 105.1 203.99C103.103 200.478 104.943 201.931 104.857 200.828C104.189 192.329 103.231 181.492 103.231 181.492L99.0102 169.611C97.9314 166.575 98.074 163.237 99.4081 160.304C100.742 157.37 103.163 155.069 106.161 153.886L111.112 151.933L116.944 146.061Z" fill="#1BD7BE"/>
<path d="M217.5 141.678C217.181 142.272 216.738 142.789 216.2 143.195C215.662 143.6 215.043 143.884 214.385 144.026C213.726 144.169 213.045 144.167 212.388 144.02C211.73 143.873 211.113 143.585 210.577 143.176L190.407 154.597L185.877 149.794L209.933 136.404C210.688 135.555 211.729 135.011 212.858 134.878C213.987 134.744 215.125 135.03 216.058 135.68C216.991 136.33 217.653 137.299 217.918 138.405C218.184 139.51 218.035 140.675 217.5 141.678Z" fill="#FFB6B6"/>
<path d="M126.684 168.637L126.377 172.315L166.532 171.799L206.503 149.325L200.659 140.33L165.528 155.103L140.558 155.61C137.044 155.681 133.681 157.052 131.119 159.458C128.557 161.864 126.977 165.134 126.684 168.637Z" fill="#1BD7BE"/>
<path d="M121.843 143.436C129.045 143.436 134.883 137.597 134.883 130.394C134.883 123.191 129.045 117.352 121.843 117.352C114.641 117.352 108.803 123.191 108.803 130.394C108.803 137.597 114.641 143.436 121.843 143.436Z" fill="#FFB6B6"/>
<path d="M136.499 124.58C136.282 124.695 136.069 124.8 135.851 124.905C135.624 125.015 135.397 125.124 135.17 125.225C130.803 127.206 127.249 127.425 125.092 124.58C125.034 123.083 124.698 121.61 124.101 120.236C124.206 121.772 123.802 123.299 122.95 124.58H118.608C114.135 127.549 111.838 127.86 114.942 137.607C115.808 140.323 119.249 156.128 117.896 158.472C117.504 158.429 113.308 145.416 112.931 145.345C104.43 143.736 97.9983 136.752 97.8242 128.323C97.8339 127.893 97.8629 127.463 97.9064 127.043C98.4665 126.201 99.0819 125.398 99.7488 124.637C99.7454 122.384 100.263 120.161 101.262 118.141C102.526 115.582 104.496 113.438 106.939 111.964C108.396 111.258 109.914 110.687 111.475 110.26C111.514 110.25 111.548 110.241 111.586 110.231C112.065 110.102 112.553 109.983 113.042 109.883C114.051 109.67 115.071 109.515 116.098 109.42C116.17 109.415 116.243 109.41 116.311 109.41C116.721 109.411 117.123 109.522 117.476 109.73C117.481 109.73 117.481 109.735 117.486 109.735C117.738 109.882 117.958 110.079 118.134 110.312C118.443 110.706 118.61 111.192 118.608 111.692H123.443C123.622 111.692 123.801 111.697 123.98 111.706C127.207 111.816 130.277 113.127 132.589 115.382C134.901 117.637 136.289 120.674 136.48 123.898C136.495 124.127 136.499 124.351 136.499 124.58Z" fill="#2B2B2B"/>
<path d="M104.056 126.968C108.801 126.968 112.647 123.121 112.647 118.375C112.647 113.63 108.801 109.783 104.056 109.783C99.3112 109.783 95.4648 113.63 95.4648 118.375C95.4648 123.121 99.3112 126.968 104.056 126.968Z" fill="#2B2B2B"/>
<path d="M114.559 111.691C114.723 116.433 110.713 120.283 105.968 120.283C103.689 120.283 101.504 119.378 99.8932 117.766C98.2821 116.155 97.377 113.97 97.377 111.691C97.377 106.945 103.123 106.896 105.968 103.099C109.992 97.7261 114.338 105.295 114.559 111.691Z" fill="#2B2B2B"/>
<path d="M125.79 246.102C124.456 226.305 128.362 207.683 139.207 190.618C139.48 189.495 140.187 188.526 141.173 187.924C142.159 187.322 143.343 187.136 144.467 187.406L186.364 197.54C187.486 197.813 188.455 198.52 189.057 199.506C189.659 200.492 189.845 201.677 189.575 202.8L176.158 258.285C175.885 259.407 175.178 260.376 174.192 260.978C173.206 261.58 172.022 261.766 170.898 261.496L129.001 251.362C127.879 251.089 126.91 250.382 126.308 249.396C125.706 248.41 125.52 247.225 125.79 246.102Z" fill="#F2F2F2"/>
<path opacity="0.2" d="M134.001 250.306C132.878 250.034 131.91 249.327 131.308 248.34C130.706 247.354 130.52 246.17 130.79 245.046C129.456 225.249 133.361 206.627 144.207 189.562C144.39 188.826 144.764 188.151 145.291 187.606L144.467 187.406C143.343 187.136 142.159 187.322 141.173 187.924C140.187 188.526 139.48 189.495 139.207 190.618C128.362 207.683 124.456 226.305 125.79 246.102C125.52 247.225 125.706 248.41 126.308 249.396C126.91 250.382 127.879 251.089 129.001 251.362L170.898 261.496C171.643 261.674 172.422 261.651 173.155 261.431C173.888 261.21 174.55 260.8 175.074 260.241L134.001 250.306Z" fill="#2B2B2B"/>
<path d="M171.935 226.95L143.841 220.237C143.394 220.13 143.008 219.85 142.768 219.458C142.527 219.067 142.452 218.596 142.559 218.149C142.666 217.702 142.946 217.316 143.337 217.075C143.728 216.835 144.199 216.759 144.646 216.865L172.741 223.579C173.187 223.687 173.571 223.967 173.811 224.358C174.05 224.75 174.125 225.22 174.018 225.666C173.911 226.112 173.632 226.498 173.242 226.739C172.852 226.979 172.382 227.056 171.935 226.95Z" fill="white"/>
<path d="M152.227 212.467L146.046 210.99C145.6 210.884 145.213 210.605 144.972 210.215C144.73 209.824 144.654 209.353 144.759 208.906C144.864 208.459 145.143 208.072 145.533 207.83C145.924 207.588 146.394 207.511 146.841 207.616L146.852 207.619L153.033 209.095C153.478 209.204 153.863 209.484 154.102 209.875C154.342 210.266 154.416 210.737 154.31 211.183C154.203 211.629 153.924 212.015 153.534 212.255C153.144 212.496 152.674 212.572 152.227 212.467Z" fill="white"/>
<path d="M168.389 241.772L140.294 235.059C139.848 234.951 139.463 234.67 139.224 234.279C138.984 233.888 138.91 233.417 139.016 232.971C139.123 232.525 139.402 232.139 139.792 231.898C140.183 231.658 140.653 231.582 141.1 231.687L169.194 238.4C169.416 238.452 169.626 238.547 169.811 238.68C169.996 238.813 170.153 238.981 170.273 239.175C170.393 239.368 170.473 239.584 170.51 239.809C170.547 240.034 170.539 240.264 170.487 240.485C170.434 240.707 170.339 240.916 170.206 241.101C170.072 241.286 169.904 241.443 169.71 241.563C169.516 241.682 169.301 241.763 169.076 241.799C168.851 241.835 168.621 241.827 168.4 241.774L168.389 241.772Z" fill="white"/>
<path d="M170.166 234.363L142.071 227.65C141.624 227.544 141.237 227.264 140.996 226.873C140.755 226.482 140.679 226.01 140.785 225.563C140.892 225.116 141.171 224.729 141.562 224.488C141.954 224.247 142.425 224.171 142.872 224.277L142.876 224.278L170.971 230.992C171.417 231.1 171.802 231.38 172.041 231.771C172.281 232.163 172.355 232.633 172.249 233.079C172.142 233.525 171.863 233.911 171.473 234.152C171.082 234.393 170.612 234.469 170.166 234.363Z" fill="white"/>
<path d="M164.223 199.547C168.214 199.547 171.449 196.311 171.449 192.319C171.449 188.328 168.214 185.092 164.223 185.092C160.231 185.092 156.996 188.328 156.996 192.319C156.996 196.311 160.231 199.547 164.223 199.547Z" fill="#2B2B2B"/>
<path d="M127.787 250.242C127.197 249.917 126.686 249.466 126.287 248.923C125.889 248.38 125.613 247.757 125.479 247.097C125.345 246.437 125.356 245.755 125.511 245.1C125.666 244.445 125.962 243.831 126.378 243.301L115.219 222.982L120.079 218.514L133.156 242.743C133.996 243.509 134.526 244.557 134.645 245.688C134.764 246.818 134.464 247.954 133.802 248.878C133.14 249.802 132.162 250.452 131.054 250.703C129.945 250.955 128.783 250.791 127.787 250.242Z" fill="#FFB6B6"/>
<path d="M114.751 160.304L102.748 159.146C102.189 159.092 101.623 159.155 101.09 159.333C100.556 159.51 100.065 159.797 99.6484 160.175C99.232 160.553 98.8992 161.014 98.6715 161.529C98.4438 162.043 98.3262 162.6 98.3262 163.162V198.883L120.281 239.145L129.349 233.417L115.031 198.093L114.751 160.304Z" fill="#1BD7BE"/>
<path d="M209.501 157.404C212.284 137.758 219.951 120.344 234.087 105.887C234.585 104.845 235.477 104.043 236.566 103.658C237.655 103.273 238.853 103.335 239.896 103.832L278.797 122.401C279.839 122.9 280.64 123.792 281.026 124.881C281.411 125.97 281.349 127.168 280.852 128.211L256.267 179.728C255.768 180.77 254.877 181.572 253.788 181.957C252.699 182.343 251.501 182.28 250.458 181.784L211.557 163.214C210.515 162.715 209.713 161.823 209.328 160.734C208.943 159.645 209.005 158.447 209.501 157.404Z" fill="#F2F2F2"/>
<path opacity="0.2" d="M216.667 163.214C215.625 162.715 214.823 161.823 214.438 160.734C214.053 159.645 214.115 158.447 214.611 157.404C217.394 137.758 225.061 120.344 239.196 105.887C239.527 105.205 240.033 104.622 240.661 104.197L239.896 103.832C238.853 103.335 237.655 103.273 236.566 103.658C235.477 104.043 234.585 104.845 234.087 105.887C219.951 120.344 212.284 137.758 209.501 157.404C209.005 158.447 208.943 159.645 209.328 160.734C209.713 161.823 210.515 162.715 211.557 163.214L250.458 181.784C251.15 182.111 251.916 182.25 252.679 182.186C253.442 182.122 254.175 181.857 254.802 181.418L216.667 163.214Z" fill="#2B2B2B"/>
<path d="M258.609 148.195L232.507 135.823C232.091 135.626 231.771 135.273 231.616 134.84C231.462 134.407 231.486 133.93 231.683 133.515C231.879 133.099 232.233 132.779 232.666 132.624C233.099 132.47 233.576 132.494 233.991 132.69L260.094 145.062C260.508 145.26 260.826 145.614 260.979 146.046C261.133 146.478 261.109 146.954 260.912 147.368C260.716 147.783 260.363 148.102 259.932 148.257C259.5 148.412 259.025 148.39 258.609 148.195Z" fill="white"/>
<path d="M242.318 129.956L236.576 127.235C236.369 127.138 236.184 127.001 236.031 126.833C235.877 126.665 235.759 126.468 235.681 126.254C235.604 126.04 235.569 125.812 235.58 125.585C235.591 125.357 235.646 125.134 235.743 124.928C235.84 124.722 235.976 124.537 236.145 124.383C236.313 124.23 236.51 124.111 236.724 124.034C236.939 123.957 237.166 123.923 237.394 123.934C237.621 123.944 237.844 124 238.05 124.097L238.06 124.102L243.803 126.824C244.217 127.021 244.535 127.375 244.689 127.807C244.843 128.24 244.819 128.715 244.622 129.13C244.426 129.545 244.073 129.865 243.641 130.019C243.209 130.174 242.733 130.152 242.318 129.956Z" fill="white"/>
<path d="M252.081 161.968L225.979 149.596C225.565 149.399 225.246 149.045 225.092 148.613C224.939 148.18 224.963 147.705 225.159 147.29C225.356 146.875 225.708 146.555 226.14 146.401C226.572 146.246 227.048 146.268 227.463 146.464L253.566 158.835C253.772 158.932 253.957 159.069 254.11 159.237C254.263 159.405 254.382 159.602 254.459 159.816C254.536 160.03 254.57 160.258 254.56 160.485C254.549 160.712 254.494 160.935 254.397 161.141C254.3 161.347 254.164 161.532 253.996 161.686C253.827 161.839 253.631 161.958 253.416 162.035C253.202 162.112 252.975 162.146 252.748 162.136C252.52 162.125 252.297 162.07 252.091 161.973L252.081 161.968Z" fill="white"/>
<path d="M255.344 155.083L229.241 142.711C228.825 142.514 228.505 142.161 228.35 141.728C228.195 141.295 228.218 140.819 228.414 140.403C228.61 139.987 228.964 139.667 229.397 139.512C229.829 139.357 230.306 139.38 230.722 139.576L230.725 139.578L256.828 151.95C257.242 152.148 257.56 152.501 257.714 152.934C257.867 153.366 257.843 153.841 257.647 154.256C257.45 154.671 257.098 154.99 256.666 155.145C256.234 155.3 255.759 155.278 255.344 155.083Z" fill="white"/>
<path d="M258.215 119.947C262.206 119.947 265.441 116.711 265.441 112.72C265.441 108.728 262.206 105.492 258.215 105.492C254.224 105.492 250.988 108.728 250.988 112.72C250.988 116.711 254.224 119.947 258.215 119.947Z" fill="#2B2B2B"/>
<path d="M300.953 182.855C293.116 165.85 289.684 147.524 292.088 127.447C291.716 125.112 293.018 122.771 294.998 122.215L330.48 112.301C332.46 111.75 334.368 113.194 334.743 115.528L343.609 170.936C343.981 173.272 342.679 175.612 340.699 176.168L305.217 186.082C303.236 186.633 301.329 185.189 300.953 182.855Z" fill="#F2F2F2"/>
<path opacity="0.2" d="M308.671 182.884C306.691 183.435 304.783 181.991 304.407 179.657C296.57 162.652 293.138 144.326 295.542 124.249C295.428 123.504 295.481 122.742 295.696 122.02L294.998 122.215C293.018 122.77 291.716 125.111 292.088 127.447C289.684 147.524 293.116 165.85 300.953 182.854C301.329 185.189 303.236 186.632 305.217 186.082L340.699 176.167C341.375 175.941 341.982 175.546 342.464 175.021C342.946 174.496 343.287 173.858 343.455 173.165L308.671 182.884Z" fill="#2B2B2B"/>
<path d="M329.598 144.974L305.833 151.696C305.045 151.917 304.285 151.344 304.135 150.415C304.05 149.988 304.119 149.544 304.33 149.163C304.54 148.782 304.88 148.488 305.287 148.333L329.052 141.611C329.84 141.391 330.599 141.967 330.747 142.896C330.831 143.322 330.762 143.765 330.552 144.145C330.342 144.525 330.004 144.819 329.598 144.974Z" fill="white"/>
<path d="M309.56 140.997L304.331 142.476C303.544 142.702 302.782 142.133 302.629 141.205C302.542 140.777 302.609 140.332 302.82 139.95C303.03 139.567 303.369 139.272 303.776 139.116L303.785 139.113L309.013 137.635C309.801 137.415 310.56 137.99 310.709 138.919C310.793 139.346 310.724 139.788 310.514 140.168C310.304 140.549 309.966 140.842 309.56 140.997Z" fill="white"/>
<path d="M331.995 159.756L308.23 166.478C307.442 166.697 306.683 166.122 306.535 165.193C306.451 164.767 306.52 164.324 306.73 163.944C306.94 163.564 307.278 163.27 307.684 163.115L331.449 156.393C332.236 156.167 332.998 156.737 333.152 157.665C333.239 158.092 333.171 158.537 332.961 158.919C332.751 159.302 332.412 159.597 332.004 159.753L331.995 159.756Z" fill="white"/>
<path d="M330.795 152.367L307.03 159.088C306.242 159.312 305.481 158.741 305.329 157.813C305.243 157.385 305.311 156.941 305.522 156.558C305.733 156.176 306.072 155.882 306.48 155.726L306.483 155.725L330.248 149.004C331.036 148.784 331.795 149.359 331.944 150.288C332.028 150.715 331.959 151.157 331.749 151.537C331.539 151.918 331.201 152.211 330.795 152.367Z" fill="white"/>
<path d="M317.764 118.429C318.275 114.47 316.011 110.915 312.707 110.488C309.403 110.061 306.31 112.924 305.799 116.883C305.288 120.842 307.551 124.397 310.855 124.824C314.159 125.251 317.252 122.388 317.764 118.429Z" fill="#2B2B2B"/>
<path d="M131.333 80.3469C130.198 80.3469 128.97 80.219 127.893 80.6369C127.628 80.74 126.982 81.0076 127.408 81.331C128.775 82.3702 130.54 83.0431 131.998 83.962C132.543 84.3059 137.534 87.5453 134.941 88.5093C132.723 89.3343 127.583 89.2624 127.45 86.0233C127.275 81.7495 135.825 82.135 138.36 81.7971C138.912 81.7235 143.074 81.2892 141.146 79.7565C140.207 79.0105 138.695 78.782 137.6 79.3111C136.535 79.8258 136.3 81.0284 136.376 82.0871C136.551 84.5102 137.508 86.8729 137.991 89.2448C138.215 90.3466 138.984 92.7876 137.421 93.3778C136.202 93.8382 134.998 93.0919 134.372 92.083C133.297 90.3515 133.691 86.7434 136.545 87.4321C137.712 87.7137 142.788 92.3152 143.783 90.6432C144.516 89.4118 143.237 87.6547 142.412 86.8727C140.444 85.0086 137.699 84.0549 134.984 84.1174C133.424 84.1533 131.124 84.5123 130.025 85.7747C129.467 86.4146 130.413 85.9697 130.594 85.7954C132.705 83.7661 134.642 79.6726 133.454 76.7836C132.749 75.071 128.821 73.9231 128.241 76.2864C127.628 78.7893 129.135 80.9298 131.829 81.0409C133.066 81.092 134.759 80.6976 135.543 79.6529C136.074 78.9449 134.812 78.8973 134.446 78.9071C130.813 79.0035 127.65 81.6977 125.593 84.4281C124.445 85.9528 123.508 88.0298 124.285 89.9388C125.065 91.8572 127.37 92.6686 129.307 92.7356C130.962 92.7928 135.581 90.8779 133.295 88.6336C130.971 86.3514 127.809 90.0499 127.809 92.2902C127.809 95.606 131.153 97.1863 134.203 96.9825C135.836 96.8735 137.888 96.0422 138.487 94.3929C138.651 93.94 138.14 92.8372 137.727 93.585C137.393 94.1898 138.125 94.931 138.592 95.1802C140.495 96.1957 142.946 95.7695 144.712 94.683C146.82 93.3857 149.377 90.6439 148.953 87.95C148.683 86.2336 146.744 84.9593 145.303 84.2624C143.812 83.5419 141.634 83.4227 141.462 85.5261C141.397 86.323 141.944 86.6395 142.675 86.2512C144.018 85.538 144.495 83.9076 144.627 82.5222C144.923 79.433 142.688 78.3209 139.858 78.5031C138.275 78.605 138.636 79.4414 139.753 78.7206C141.51 77.5869 138.977 76.3845 137.959 76.2242C136.605 76.011 135.033 76.0722 133.76 76.6179C133.243 76.8392 132.887 77.2076 133.739 77.0944C134.238 77.0279 139.427 75.8092 137.875 74.4633C136.431 73.2112 134.357 74.7749 133.612 75.8721" stroke="#2B2B2B" stroke-width="0.8" stroke-linecap="round"/>
<defs>
<filter id="filter0_d_972_3245" x="0" y="0" width="367" height="367" filterUnits="userSpaceOnUse" color-interpolation-filters="sRGB">
<feFlood flood-opacity="0" result="BackgroundImageFix"/>
<feColorMatrix in="SourceAlpha" type="matrix" values="0 0 0 0 0 0 0 0 0 0 0 0 0 0 0 0 0 0 127 0" result="hardAlpha"/>
<feOffset/>
<feGaussianBlur stdDeviation="3"/>
<feComposite in2="hardAlpha" operator="out"/>
<feColorMatrix type="matrix" values="0 0 0 0 0.734831 0 0 0 0 0.734831 0 0 0 0 0.734831 0 0 0 0.6 0"/>
<feBlend mode="normal" in2="BackgroundImageFix" result="effect1_dropShadow_972_3245"/>
<feBlend mode="normal" in="SourceGraphic" in2="effect1_dropShadow_972_3245" result="shape"/>
</filter>
</defs>
</svg>
